<svg id="_2cf41747-0c0c-4d70-aad4-093c093adad4" data-name="2cf41747-0c0c-4d70-aad4-093c093adad4" xmlns="http://www.w3.org/2000/svg" xmlns:xlink="http://www.w3.org/1999/xlink" viewBox="0 0 64.29 90.02"><defs><linearGradient id="linear-gradient" x1="364.43" y1="629.32" x2="364.43" y2="719.33" gradientTransform="matrix(1, 0, 0, -1, -88.58, 770.58)" gradientUnits="userSpaceOnUse"><stop offset="0" stop-color="gray" stop-opacity="0.25"/><stop offset="0.54" stop-color="gray" stop-opacity="0.12"/><stop offset="1" stop-color="gray" stop-opacity="0.1"/></linearGradient></defs><path d="M257.26,82.49s-5.53-.41-4.88,4.37a1.3,1.3,0,0,0,.49,1.23s0-.36.57-.24a2,2,0,0,0,.6,0,1.16,1.16,0,0,0,.73-.38h0s1.56-.79,2.16-3.92a3.39,3.39,0,0,0,.44-.86l-.94.49a2.5,2.5,0,0,1,.07,1.52s0-1.49-.21-1.45a5.3,5.3,0,0,0-.49.29,4.11,4.11,0,0,1,.14,2.49,4.86,4.86,0,0,0-.31-2.39l-.65.47a4.29,4.29,0,0,1,.2,2.71,6.22,6.22,0,0,0-.34-2.59l-.6.57a4.17,4.17,0,0,1,.24,2.48s0-2.17-.37-2.34a4.38,4.38,0,0,0-.6.8,2.76,2.76,0,0,1,.16,1.63s-.16-1.45-.29-1.45a5.54,5.54,0,0,0-.58,1.61,4.09,4.09,0,0,1,.45-1.71,1.49,1.49,0,0,0-.79.51.91.91,0,0,1,.92-.74,4.38,4.38,0,0,1,.54-.77,2.75,2.75,0,0,0-1.34.19,1.35,1.35,0,0,1,1.5-.36l.58-.59a4.06,4.06,0,0,0-1.57,0,1.62,1.62,0,0,1,1.73-.16l.64-.47a4.75,4.75,0,0,0-1.5-.16,1.91,1.91,0,0,1,1.69,0l.45-.26s-.68-.16-.89-.19-.21-.1-.21-.1a2.09,2.09,0,0,1,1.3.18A4.94,4.94,0,0,0,257.26,82.49Z" transform="translate(-249.97 -51.25)" style="fill:#63e8ff"/><path d="M256.07,95.3s-2.4-6.15-5.47-3.11a1.14,1.14,0,0,0-.63,1.12s.25-.16.44.5a3.12,3.12,0,0,0,.26.66,1.33,1.33,0,0,0,.63.61h0s1.32,1.29,3.83.41c0,0,.7.15.82,0l-.8-.76s-.44.75-1.05.81c0,0,1-.76.93-.93s-.44-.38-.44-.38-.75,1.29-1.7,1.36c0,0,1.34-.7,1.55-1.5l-.66-.47S253,95.08,252,95.2c0,0,1.38-.79,1.67-1.63l-.69-.36s-.75,1.36-1.65,1.46c0,0,1.52-1.11,1.48-1.53a3,3,0,0,0-.86-.26s-.55,1-1.08,1c0,0,.95-.88.9-1a3.15,3.15,0,0,0-1.43.18,2.38,2.38,0,0,1,1.43-.36A1.62,1.62,0,0,0,251,92s.52-.24,1,.63a3.13,3.13,0,0,1,.81.21,4.4,4.4,0,0,0-.79-1.35s.67.17,1,1.43l.7.35a6.23,6.23,0,0,0-.78-1.68s.66.3,1,1.79l.65.46a7.77,7.77,0,0,0-.62-1.69,2.94,2.94,0,0,1,.8,1.83l.4.37s-.21-.82-.29-1,0-.28,0-.28a3.38,3.38,0,0,1,.5,1.48S256,95.36,256.07,95.3Z" transform="translate(-249.97 -51.25)" style="fill:#63e8ff;opacity:0.10000000149011612;isolation:isolate"/><path d="M300.85,133.58s-2.41-6.15-5.48-3.12a1.14,1.14,0,0,0-.63,1.12s.26-.16.44.5a3.91,3.91,0,0,0,.27.67,1.24,1.24,0,0,0,.62.6h0s1.32,1.29,3.83.41c0,0,.7.15.82.05l-.8-.77s-.44.75-1.05.82c0,0,1-.76.93-.94,0,0-.43-.38-.43-.38s-.76,1.29-1.71,1.36c0,0,1.34-.7,1.55-1.49l-.66-.48s-.74,1.42-1.82,1.54c0,0,1.38-.79,1.67-1.63l-.69-.36s-.75,1.36-1.65,1.46c0,0,1.52-1.11,1.48-1.53a3,3,0,0,0-.85-.26s-.56,1-1.09,1c0,0,1-.88.9-1a3.15,3.15,0,0,0-1.43.18,2.38,2.38,0,0,1,1.43-.36,1.53,1.53,0,0,0-.75-.61s.53-.24,1,.64a3.06,3.06,0,0,1,.81.2,4.4,4.4,0,0,0-.79-1.35s.67.17,1,1.44l.7.34a6.21,6.21,0,0,0-.78-1.67s.67.3,1,1.79l.64.45a8,8,0,0,0-.62-1.69,3,3,0,0,1,.8,1.84l.41.35s-.22-.82-.29-1.05,0-.27,0-.27a3.22,3.22,0,0,1,.5,1.48A6.79,6.79,0,0,0,300.85,133.58Z" transform="translate(-249.97 -51.25)" style="fill:#63e8ff;opacity:0.10000000149011612;isolation:isolate"/><ellipse cx="51.17" cy="80.07" rx="3.34" ry="0.46" style="fill:#63e8ff;opacity:0.10000000149011612;isolation:isolate"/><path d="M300.28,118.85c-.95-3.19-6.19-3.49-8.46-2.68a54.7,54.7,0,0,1-6.84,1.56l-.11-.13c.23-.09.24-.3.21-.62s0-.82,0-1.24a2.16,2.16,0,0,0,2.11-.58h0c1.31-.71,1-3.78,1.21-4.62.18-.63.39-4.32.48-6.06h0v-.72c0-.27,0-.42,0-.42a52.15,52.15,0,0,1,.38-5.42c.24-.84.42-5.06.51-5.73V92.1l-.08-.39c0-.29,0-.6,0-.94,0-1.53-.15-3.77-.15-3.77v-.29c0-.64-.05-3.87-2.28-5.08l-2.76-1.52a71.39,71.39,0,0,1-.75-7.85,11.85,11.85,0,0,1,.06-1.19c0,.12,0,.23,0,.35v.66c.09-3.35,1.12-6.72,1-10,0,.32,0,.65-.05,1a12.6,12.6,0,0,0-.28-3.3,2.08,2.08,0,0,0-.46-1,1.78,1.78,0,0,0-.79-.39,15.19,15.19,0,0,0-2.1-.48,4,4,0,0,0-.47-1.12c-1.47-2.5-3.66-4.84-6.24-5.38a3.6,3.6,0,0,0-3.67,1.09,2.69,2.69,0,0,0-.26.33c-.49.72-.69,1.68-1.22,2.38l0,.06c-1,1-2.43,1.27-3.49,2.21a4.6,4.6,0,0,0-.52.56,10.87,10.87,0,0,0-1.15,1.71A7.79,7.79,0,0,0,263,62.36c-.31,2,.78,3.84,1,5.82.45,4.44-3.54,8.38-2.79,12.76a6.38,6.38,0,0,0,1.29,2.84c-1.56,1.73-2.88,3.42-2.88,3.42v.23h-.33l0,.26h0l.14,1.9,0,2.83v.08h0v.17h0c.05,1,.23,4.78.44,5.56a52.49,52.49,0,0,1,.38,5.43s.27,6.38.53,7.22-.11,3.91,1.21,4.64h0a2.53,2.53,0,0,0,1.32.67c-.07.67,0,1.16.19,1.31a.51.51,0,0,0,.31.11,4,4,0,0,0-.24.51,5.57,5.57,0,0,1-1.53-.44c-1.41-.72-6.1-2.34-7.47-1.2s-4.64,2.17-3.12,6.74,2.22,4.69,2.22,4.69a6.42,6.42,0,0,1,1.21,1.5c.45.84,4.69,2.77,5.75,2.77a8.74,8.74,0,0,1,1.35.08s-1.15,1.24-1,2-.35,6.5-.35,6.5,1.17,1.45,1.66-.45l0,0c.09.16.6.86,1.55,0a9.27,9.27,0,0,1,1.23-1l4.59-.8a9.89,9.89,0,0,1,1.44,0,2.74,2.74,0,0,0,1.9-.87c1,.44,2,.93,2.53,1.11,1,.36,5.77,1.92,6.88,1.43a1.56,1.56,0,0,0,.6-.52l1.06,0-.5.12,2.28,0-.06,0h1.47s5.1-.07,5.45-.17a35.59,35.59,0,0,1,4.3.17h.23s3.18-1,1.87-4.91c-1-3.05-4.1-3.93-5.48-4.17l1-.22a7,7,0,0,0,3-1.62c.15-.36,1.71-1.43,2.11-2A13.86,13.86,0,0,0,300.28,118.85ZM274,127.76l-.16.06-.1,0-.21.24-.51-.41Zm13.86,5Z" transform="translate(-249.97 -51.25)" style="fill:url(#linear-gradient)"/><path d="M283.24,108.87s2.23,7.16,3.49,6.44.92-3.76,1.16-4.59.51-7.17.51-7.17a53.71,53.71,0,0,1,.37-5.38c.22-.84.4-5,.43-5.7v-.09L289,87.19l-1.35-.42-3.15,1.43L284,91.27l-.17,1.2-.07.51Z" transform="translate(-249.97 -51.25)" style="fill:#be6f72"/><path d="M284,107.67a15.74,15.74,0,0,0,2.77,2.32c.63.19,1,1.86,1,1.86" transform="translate(-249.97 -51.25)" style="opacity:0.10000000149011612;isolation:isolate"/><path d="M265.8,109.18s-2.23,7.17-3.49,6.45-.93-3.76-1.17-4.6-.51-7.16-.51-7.16a53.54,53.54,0,0,0-.36-5.39c-.22-.83-.41-5-.44-5.7V92.7l.25-5.2,1.35-.42,3.15,1.44.44,3.07.17,1.19.07.51Z" transform="translate(-249.97 -51.25)" style="fill:#be6f72"/><rect x="25.47" y="19.66" width="4.93" height="9.45" style="fill:#3e373a"/><rect x="25.47" y="19.66" width="4.93" height="9.45" style="opacity:0.10000000149011612;isolation:isolate"/><path d="M265,116.32s-1.7,2.29-1.07,2.71,4.7,8.24,4.7,8.24,13.38,2,15.9-1,2.48-8.49,2.48-8.49-2,.54-2.25.25-1.44-1.7-1.44-1.7S266.17,115,265,116.32Z" transform="translate(-249.97 -51.25)" style="fill:#4b4b5b"/><path d="M265,116.32s-1.7,2.29-1.07,2.71,4.7,8.24,4.7,8.24,13.38,2,15.9-1,2.48-8.49,2.48-8.49-2,.54-2.25.25-1.44-1.7-1.44-1.7S266.17,115,265,116.32Z" transform="translate(-249.97 -51.25)" style="opacity:0.019999999552965164;isolation:isolate"/><path d="M289.09,87.26l-4.36,4.3-1.32.12-.48,0-8.14.74-8.43-.76-1.26-.11-1.6-.15-3.34-3.94a63.89,63.89,0,0,1,4.44-5.23,9,9,0,0,1,2.15-1.77l.1,0a2.47,2.47,0,0,0,.92-.79c1.64-2.08,3.15-7.21,3.15-7.21s7.22-4.6,6.35,1.43,3.25,4.54,3.25,4.54l1.36.77.53.3,1.37.77L286.87,82C289.29,83.38,289.09,87.26,289.09,87.26Z" transform="translate(-249.97 -51.25)" style="fill:#be6f72"/><ellipse cx="24.48" cy="18.11" rx="6.5" ry="8" style="opacity:0.10000000149011612;isolation:isolate"/><path d="M289,92.94H259.83v-.09l.25-5.19a63.25,63.25,0,0,1,4.44-5.24l18.32-.89.85-1.11,3.09,1.75c2.43,1.37,2.23,5.25,2.23,5.25S289.34,91.92,289,92.94Z" transform="translate(-249.97 -51.25)" style="opacity:0.10000000149011612;isolation:isolate"/><path d="M289,92.68H259.83v-.09l.25-5.2a63.89,63.89,0,0,1,4.44-5.23l18.32-.89.85-1.11,3.09,1.74c2.43,1.38,2.23,5.26,2.23,5.26S289.34,91.66,289,92.68Z" transform="translate(-249.97 -51.25)" style="fill:#e7c7ca"/><path d="M269.77,78.22s4.61,7.22,10.74-.15.68,16.45.68,16.45L268,96.45Z" transform="translate(-249.97 -51.25)" style="opacity:0.10000000149011612;isolation:isolate"/><path d="M269.77,78.57s4.61,7.23,10.74-.14.68,16.45.68,16.45L268,96.81Z" transform="translate(-249.97 -51.25)" style="fill:#e7c7ca"/><path d="M282.34,79.75l.49,9.2.53,3.06.4,2.34s1,18,.73,18.9a3.72,3.72,0,0,0,.21,2.1c.06.48-.07,1.68,0,2.22s0,.78-1.12.59-2.68-.53-2.68-.53-3.94.36-5.31-.24a12.72,12.72,0,0,0-3.94-.6s-3.9.12-5.16-.06-2,1.92-2.78,1.32,1-6.42,1.56-8.1-.78-5.94-.78-5.94l1.75-12,.39-2.71V80.77l.1,0a2.47,2.47,0,0,0,.92-.79l.44,8.59,13.74.6V79.56" transform="translate(-249.97 -51.25)" style="opacity:0.10000000149011612;isolation:isolate"/><path d="M282.34,79.39l.49,9.2.53,3.06.4,2.34s1,18,.73,18.9a3.72,3.72,0,0,0,.21,2.1c.06.48-.07,1.68,0,2.22s0,.78-1.12.59-2.68-.53-2.68-.53-3.94.36-5.31-.24a12.72,12.72,0,0,0-3.94-.6s-3.9.12-5.16-.06-2,1.92-2.78,1.32,1-6.42,1.56-8.1-.78-5.94-.78-5.94l1.75-12,.39-2.71V80.41l.1,0a2.5,2.5,0,0,0,.92-.8l.44,8.6,13.74.6V79" transform="translate(-249.97 -51.25)" style="fill:#e7c7ca"/><path d="M284,60.38a2.11,2.11,0,0,0-.44-1,1.62,1.62,0,0,0-.77-.39,14,14,0,0,0-2-.48,4.67,4.67,0,0,0-.44-1.11c-1.43-2.48-3.53-4.82-6-5.35a3.35,3.35,0,0,0-3.63,1.24c-.46.69-.65,1.61-1.12,2.29-.88,1.32-2.49,1.48-3.61,2.51a7.67,7.67,0,0,0-1.45,2.07,7.92,7.92,0,0,0-1.08,2.65c-.29,2,.76,3.82.95,5.79.44,4.41-3.4,8.33-2.67,12.68A7.23,7.23,0,0,0,266,86.5,3,3,0,0,1,267.79,88c.15.36.17.78.31,1.14a1.64,1.64,0,0,0,2.78.37,6.1,6.1,0,0,0,1.17-3.63c.39-5.8-1.5-11.52-1.28-17.33.07-1.76.47-3.76,1.75-4.55,1.72-1.08,3.79.71,5.68.37a16.92,16.92,0,0,1,.54,8.48,27.9,27.9,0,0,0-.86,4.64c-.05,2.43,1,4.64,1.93,6.79a4.14,4.14,0,0,1,.39,1.31,3.93,3.93,0,0,1-.21,1.37c-.52,1.72-1.42,3.32-1.52,5.15a1,1,0,0,0,.11.62.55.55,0,0,0,.38.2c1.57.34,2.93-1.38,3.69-3.1a17.17,17.17,0,0,0,1.46-6.19c.16-3.64-.9-7.23-.84-10.88C283.35,68.57,284.87,64.39,284,60.38Z" transform="translate(-249.97 -51.25)" style="opacity:0.10000000149011612;isolation:isolate"/><path d="M284.12,60.2a2.1,2.1,0,0,0-.43-1,1.71,1.71,0,0,0-.77-.39,12.86,12.86,0,0,0-2-.47,4.22,4.22,0,0,0-.44-1.12c-1.42-2.48-3.53-4.82-6-5.35a3.37,3.37,0,0,0-3.64,1.24c-.45.69-.65,1.61-1.11,2.29-.89,1.32-2.49,1.48-3.61,2.51A7.92,7.92,0,0,0,264.63,60a7.7,7.7,0,0,0-1.07,2.65c-.29,1.95.76,3.82.95,5.79.44,4.41-3.4,8.33-2.68,12.68a7.24,7.24,0,0,0,4.3,5.23,3,3,0,0,1,1.81,1.46c.14.36.17.78.31,1.14a1.63,1.63,0,0,0,2.78.37,6.09,6.09,0,0,0,1.16-3.63c.39-5.79-1.49-11.52-1.27-17.33.06-1.76.46-3.76,1.74-4.55,1.72-1.08,3.79.72,5.68.37a16.92,16.92,0,0,1,.55,8.48,28.28,28.28,0,0,0-.86,4.64c-.06,2.43,1,4.65,1.92,6.79a4.14,4.14,0,0,1,.39,1.31,3.51,3.51,0,0,1-.21,1.37c-.51,1.72-1.41,3.32-1.51,5.15a1,1,0,0,0,.11.62.53.53,0,0,0,.37.2c1.57.34,2.93-1.38,3.7-3.1a17.11,17.11,0,0,0,1.45-6.18c.16-3.65-.9-7.24-.83-10.89C283.49,68.39,285,64.21,284.12,60.2Z" transform="translate(-249.97 -51.25)" style="fill:#3e373a"/><polygon points="30.94 88.28 36.71 88.51 35.88 83.24 31.46 83.76 30.94 88.28" style="fill:#c3c7d9"/><path d="M298.79,127c-.39.59-1.89,1.67-2,2a6.74,6.74,0,0,1-2.86,1.61,20.15,20.15,0,0,0-4.36,1.37,35.37,35.37,0,0,1-5.47,1.78,12,12,0,0,1-1.66.37c-.87.06-10.42-3.94-10.42-3.94l1.84-2.33.1,0c.52-.22,2.93-1.22,4.26-1.7,1.51-.53,3.25-2.74,3.25-2.74s2.57-1.08,2.91-1.2-.87-4.18-.87-4.18a65.85,65.85,0,0,0,7.76-1.76c2.18-.81,7.22-.51,8.14,2.66A14.19,14.19,0,0,1,298.79,127Z" transform="translate(-249.97 -51.25)" style="fill:#4b4b5b"/><path d="M273.38,137.13s-1.11,1.43-2.22,1.31a41.14,41.14,0,0,0-5,.36,7.8,7.8,0,0,0-2,1.4c-.91.89-1.39.18-1.48,0l0,0c-.48,1.89-1.6.45-1.6.45s.49-5.73.34-6.45,1-1.95,1-1.95l1.31-.41,3.31-1,4.75,2Z" transform="translate(-249.97 -51.25)" style="fill:#e7c7ca"/><path d="M263.67,131.84l-1,8.39,0,0c-.48,1.89-1.6.45-1.6.45s.49-5.73.34-6.45,1-1.95,1-1.95Z" transform="translate(-249.97 -51.25)" style="opacity:0.10000000149011612;isolation:isolate"/><path d="M270.53,108a6.5,6.5,0,0,0,4.8,0" transform="translate(-249.97 -51.25)" style="opacity:0.10000000149011612;isolation:isolate"/><path d="M279.3,110a1.79,1.79,0,0,0,1.89,0" transform="translate(-249.97 -51.25)" style="opacity:0.10000000149011612;isolation:isolate"/><path d="M279.3,111.57s1.79.3,2.13-.3" transform="translate(-249.97 -51.25)" style="opacity:0.10000000149011612;isolation:isolate"/><path d="M278.72,114.91s3.37-.54,4.2-1.25" transform="translate(-249.97 -51.25)" style="opacity:0.10000000149011612;isolation:isolate"/><path d="M268.44,113.66a7,7,0,0,0,3.3,1.25" transform="translate(-249.97 -51.25)" style="opacity:0.10000000149011612;isolation:isolate"/><path d="M284.06,133.83a12,12,0,0,1-1.66.37c-.87.06-10.42-3.94-10.42-3.94l1.84-2.33.1,0c.29.25.53.47.7.63.8.78,1.58-.24,1.87-.24a24.69,24.69,0,0,1,2.81,2.57s2.33.66,2.71,1.26,1.75.47,2,.89A2.06,2.06,0,0,1,284.06,133.83Z" transform="translate(-249.97 -51.25)" style="opacity:0.10000000149011612;isolation:isolate"/><path d="M266.14,118.32a8.75,8.75,0,0,1-3.71-.54c-1.36-.71-5.87-2.33-7.17-1.19s-4.47,2.15-3,6.69,2.13,4.66,2.13,4.66a6,6,0,0,1,1.17,1.49c.43.83,4.5,2.74,5.52,2.74s2.81,0,5.33,2.15a9.77,9.77,0,0,0,4.8,2.39s3.2,1.61,4.2,2,5.55,1.91,6.62,1.44,1.74-3.47,1.74-3.47.48-2.69.24-3.1-1.6-.3-2-.9-2.72-1.25-2.72-1.25a23.87,23.87,0,0,0-2.81-2.57c-.29,0-1.06,1-1.86.24a42.47,42.47,0,0,0-5-3.95C267.77,123.93,266.14,118.32,266.14,118.32Z" transform="translate(-249.97 -51.25)" style="fill:#4b4b5b"/><path d="M261.41,120.05a2.4,2.4,0,0,1,2.38.77,41.08,41.08,0,0,0,5.08,3.6" transform="translate(-249.97 -51.25)" style="opacity:0.10000000149011612;isolation:isolate"/><path d="M290.5,120s-5.19,1-6.16,2.28" transform="translate(-249.97 -51.25)" style="opacity:0.10000000149011612;isolation:isolate"/><path d="M296.46,139.64h-.23a33.38,33.38,0,0,0-4.13,0c-.63.18-9,0-9,0l1.63-.42s-.61-2.61-.22-2.82c0,0-2.18-1.77-.54-3a4.28,4.28,0,0,1,3.42-.69l4.13-1.72.79-.34s4.65.3,5.91,4.24S296.46,139.64,296.46,139.64Z" transform="translate(-249.97 -51.25)" style="fill:#e7c7ca"/><path d="M296.46,139.64h-.23c1.36-1.37,4.42-5.56-4.68-8.62l.79-.33s4.65.3,5.91,4.24S296.46,139.64,296.46,139.64Z" transform="translate(-249.97 -51.25)" style="opacity:0.10000000149011612;isolation:isolate"/><ellipse cx="37.94" cy="83.55" rx="0.25" ry="0.31" style="fill:#4b4b5b"/><ellipse cx="36.46" cy="84.07" rx="0.25" ry="0.31" style="fill:#4b4b5b"/><g style="opacity:0.10000000149011612"><path d="M279.22,69.06a16.66,16.66,0,0,0-.84-5.76c-1.89.35-4-1.44-5.68-.37-1.27.8-1.67,2.79-1.74,4.55,0,.46,0,.92,0,1.39a4.18,4.18,0,0,1,0-.5c.06-1.75.46-3.75,1.74-4.54,1.72-1.08,3.79.71,5.68.37A16.52,16.52,0,0,1,279.22,69.06Z" transform="translate(-249.97 -51.25)"/><path d="M264.57,68.73a7.62,7.62,0,0,0,0-1.17c-.15-1.57-.85-3.08-1-4.62-.16,1.86.8,3.64,1,5.52A1.27,1.27,0,0,1,264.57,68.73Z" transform="translate(-249.97 -51.25)"/><path d="M272.23,84.81a6,6,0,0,1-1.16,3.63,1.63,1.63,0,0,1-2.78-.37c-.15-.36-.17-.78-.31-1.14a3.08,3.08,0,0,0-1.81-1.46,7.24,7.24,0,0,1-4.3-5.23,5.35,5.35,0,0,1-.07-.7,7.13,7.13,0,0,0,.07,1.6,7.28,7.28,0,0,0,4.3,5.23A3,3,0,0,1,268,87.83c.14.36.17.77.31,1.13a1.64,1.64,0,0,0,2.78.38,6.09,6.09,0,0,0,1.16-3.63c0-.7.06-1.4,0-2.11C272.28,84,272.26,84.41,272.23,84.81Z" transform="translate(-249.97 -51.25)"/><path d="M283.45,71.69v.77c.08-3.33,1.08-6.68,1-9.94C284.35,65.54,283.51,68.62,283.45,71.69Z" transform="translate(-249.97 -51.25)"/><path d="M280.34,85.17a2.81,2.81,0,0,0,0-.65,4.14,4.14,0,0,0-.39-1.31A18.45,18.45,0,0,1,278.08,77c0,.09,0,.18,0,.28-.06,2.42,1,4.64,1.92,6.79A4.71,4.71,0,0,1,280.34,85.17Z" transform="translate(-249.97 -51.25)"/><path d="M284.3,82.58a17.13,17.13,0,0,1-1.47,6.18c-.76,1.72-2.12,3.44-3.69,3.11a.61.61,0,0,1-.38-.21.91.91,0,0,1-.07-.14c0,.14,0,.28,0,.42a1,1,0,0,0,.11.61.56.56,0,0,0,.38.21c1.57.33,2.93-1.38,3.69-3.1a17.18,17.18,0,0,0,1.47-6.19c0-.42,0-.83,0-1.25C284.31,82.34,284.31,82.46,284.3,82.58Z" transform="translate(-249.97 -51.25)"/></g><path d="M284.54,136.51s3.68,1.9,6.11-2.31" transform="translate(-249.97 -51.25)" style="fill:none;stroke:#000;stroke-miterlimit:10;opacity:0.10000000149011612;isolation:isolate"/><path d="M285.26,139.83a6.05,6.05,0,0,1,6.84-.07" transform="translate(-249.97 -51.25)" style="fill:none;stroke:#000;stroke-miterlimit:10;opacity:0.10000000149011612;isolation:isolate"/><path d="M265.14,139.29s1.26-3.51,4.63-.84" transform="translate(-249.97 -51.25)" style="fill:none;stroke:#000;stroke-miterlimit:10;opacity:0.10000000149011612;isolation:isolate"/><path d="M261.05,87.41l2.57-2.86s10-.81,10.4,3.37c0,0,3.53-5,11-3.85l3.15,3.09-8.71,4.7L271,95.47,264.76,92Z" transform="translate(-249.97 -51.25)" style="opacity:0.10000000149011612;isolation:isolate"/><path d="M261.05,87.59l2.57-2.87s10-.8,10.4,3.38c0,0,3.53-5,11-3.85l3.15,3.08L279.44,92,271,95.65l-6.23-3.43Z" transform="translate(-249.97 -51.25)" style="fill:#d5d6db"/><polygon points="9.94 36.7 11.08 53.48 23.15 54.23 22.63 37.52 22.62 37.24 9.94 36.7" style="opacity:0.10000000149011612;isolation:isolate"/><polygon points="9.94 36.34 11.08 53.13 23.15 53.87 22.63 37.16 22.62 36.88 9.94 36.34" style="fill:#63e8ff"/><polygon points="38.75 36.34 26.3 38.65 26.3 55.5 38.46 53.34 38.75 36.34" style="opacity:0.10000000149011612;isolation:isolate"/><polygon points="38.75 35.99 26.3 38.29 26.3 55.14 38.46 52.98 38.75 35.99" style="fill:#63e8ff"/><polygon points="35.75 40.1 29.02 41.02 29.17 43.84 35.74 42.96 35.75 40.1" style="fill:#fff;opacity:0.30000001192092896;isolation:isolate"/><path d="M261.7,113.36l.69,2.27a2,2,0,0,0,2.13.54,10.28,10.28,0,0,0,2.57-1.33,13.63,13.63,0,0,0,1.16-3.15s.68-2.87,1.36-3.59,2.47-10.59,0-9.62-4.36,9.92-4.36,9.92a1.71,1.71,0,0,1-1.07.72c-.63.06-1.89-.12-2.13.54S261,112.05,261.7,113.36Z" transform="translate(-249.97 -51.25)" style="fill:#be6f72"/><path d="M276.26,89.89a3.64,3.64,0,0,1-3.65-1.12l.53,16.71a3.38,3.38,0,0,0,3.12,1.27Z" transform="translate(-249.97 -51.25)" style="opacity:0.10000000149011612;isolation:isolate"/><path d="M276.26,89.53a3.64,3.64,0,0,1-3.65-1.12l.53,16.71a3.35,3.35,0,0,0,3.12,1.27Z" transform="translate(-249.97 -51.25)" style="fill:#63e8ff"/><path d="M276.26,89.53a3.64,3.64,0,0,1-3.65-1.12l.53,16.71a3.35,3.35,0,0,0,3.12,1.27Z" transform="translate(-249.97 -51.25)" style="opacity:0.10000000149011612;isolation:isolate"/><path d="M276.54,87.65s5.06-1.91,6.38-1.64" transform="translate(-249.97 -51.25)" style="opacity:0.10000000149011612;isolation:isolate"/><path d="M270.87,86.81s-4.91-1.43-5.73-1" transform="translate(-249.97 -51.25)" style="opacity:0.10000000149011612;isolation:isolate"/><path d="M279.73,87.89s3.39-1.53,4.61-.81" transform="translate(-249.97 -51.25)" style="opacity:0.10000000149011612;isolation:isolate"/><path d="M278,126.27a11.07,11.07,0,0,1,1.67-1.28,26.9,26.9,0,0,0,2.48-1.86" transform="translate(-249.97 -51.25)" style="opacity:0.10000000149011612;isolation:isolate"/><path d="M265.14,108a16,16,0,0,1-2.76,2.33c-.64.19-1,1.86-1,1.86" transform="translate(-249.97 -51.25)" style="opacity:0.10000000149011612;isolation:isolate"/><path d="M287.45,113l-.68,2.27a2,2,0,0,1-2.13.54,9.62,9.62,0,0,1-2.57-1.33,13.29,13.29,0,0,1-1.17-3.15s-.67-2.86-1.35-3.58-2.48-10.59,0-9.62,4.36,9.92,4.36,9.92a1.71,1.71,0,0,0,1.07.72c.63.06,1.89-.12,2.13.53S288.18,111.73,287.45,113Z" transform="translate(-249.97 -51.25)" style="fill:#be6f72"/><path d="M286.26,108.85a3.68,3.68,0,0,1,1.38,2.42" transform="translate(-249.97 -51.25)" style="opacity:0.10000000149011612;isolation:isolate"/><ellipse cx="24.51" cy="17.72" rx="6.5" ry="8" style="fill:#be6f72"/><path d="M270.4,66.82a12.13,12.13,0,0,0,2.23-1c1.68-.73,3.55-.23,5.25.42a5.62,5.62,0,0,0,2,.54,1.93,1.93,0,0,0,1.77-1.07,2.93,2.93,0,0,0,0-2.25,6.17,6.17,0,0,0-1.18-1.8c-1.52-1.76-3.39-3.41-5.47-3.23a6.59,6.59,0,0,0-2.4.85A25.29,25.29,0,0,0,269.77,61c-.7.5-2,1.17-2.39,2.08C266.46,65.13,269,67.09,270.4,66.82Z" transform="translate(-249.97 -51.25)" style="fill:#3e373a"/><path d="M281.66,64.92A2,2,0,0,1,279.89,66a5.61,5.61,0,0,1-2-.53c-1.7-.65-3.57-1.16-5.25-.42a11.27,11.27,0,0,1-2.24,1,3.18,3.18,0,0,1-3.19-2.57,3.09,3.09,0,0,0,3.19,3.11,11.32,11.32,0,0,0,2.24-1c1.68-.73,3.55-.23,5.25.43a5.61,5.61,0,0,0,2,.53,2,2,0,0,0,1.77-1.08,2.52,2.52,0,0,0,.2-1.31A2.24,2.24,0,0,1,281.66,64.92Z" transform="translate(-249.97 -51.25)" style="opacity:0.10000000149011612;isolation:isolate"/><path d="M307.52,108.17s.86,1.39-.4,3.49-2.3,3.86-1.88,5.17c0,0,1.91-3.89,3.45-4S309.22,110.51,307.52,108.17Z" transform="translate(-249.97 -51.25)" style="fill:#63e8ff"/><path d="M307.52,108.17a1.63,1.63,0,0,1,.18.43c1.51,2.19,2.31,4.23.86,4.28s-3,3-3.36,3.78c0,.06,0,.12,0,.18s1.91-3.9,3.45-4S309.22,110.51,307.52,108.17Z" transform="translate(-249.97 -51.25)" style="opacity:0.10000000149011612;isolation:isolate"/><path d="M309.12,109.94a1.93,1.93,0,0,1-.1.88,2.1,2.1,0,0,1-.1-.88c0-.49.06-.26.11-.26S309.12,109.45,309.12,109.94Z" transform="translate(-249.97 -51.25)" style="fill:#ffd037"/><path d="M309.67,110.52c-.34.24-.65.38-.67.32s.23-.3.58-.54.21-.06.23,0S310,110.29,309.67,110.52Z" transform="translate(-249.97 -51.25)" style="fill:#ffd037"/><path d="M303,108.17s-.86,1.39.4,3.49,2.3,3.86,1.88,5.17c0,0-1.9-3.89-3.45-4S301.27,110.51,303,108.17Z" transform="translate(-249.97 -51.25)" style="fill:#63e8ff"/><path d="M303,108.17a2,2,0,0,0-.17.43c-1.51,2.19-2.32,4.23-.86,4.28s3,3,3.36,3.78a1.21,1.21,0,0,1-.05.18s-1.9-3.9-3.45-4S301.27,110.51,303,108.17Z" transform="translate(-249.97 -51.25)" style="opacity:0.10000000149011612;isolation:isolate"/><path d="M301.36,109.94a2.1,2.1,0,0,0,.1.88,1.93,1.93,0,0,0,.1-.88c0-.49-.06-.26-.11-.26S301.36,109.45,301.36,109.94Z" transform="translate(-249.97 -51.25)" style="fill:#ffd037"/><path d="M300.81,110.52c.35.24.65.38.68.32s-.23-.3-.58-.54-.21-.06-.24,0S300.46,110.29,300.81,110.52Z" transform="translate(-249.97 -51.25)" style="fill:#ffd037"/><ellipse cx="55.27" cy="74.51" rx="9.02" ry="1.7" style="fill:#63e8ff;opacity:0.10000000149011612;isolation:isolate"/><path d="M309.9,114.84l0,.44-.07.61,0,.26-.06.61,0,.26-.06.61-.69,7c-.06.62-.89,1.11-1.89,1.11h-3.6c-1,0-1.82-.49-1.88-1.11l-.7-7-.06-.61,0-.26-.06-.61,0-.26-.06-.61,0-.44c0-.36.41-.65,1-.65h7.35C309.49,114.19,309.93,114.49,309.9,114.84Z" transform="translate(-249.97 -51.25)" style="fill:#65617d"/><polygon points="59.87 64.26 59.81 64.78 50.74 64.78 50.68 64.26 59.87 64.26" style="fill:#9d9cb5"/><polygon points="59.79 65.05 59.73 65.57 50.82 65.57 50.76 65.05 59.79 65.05" style="fill:#9d9cb5"/><polygon points="59.7 65.83 59.64 66.36 50.91 66.36 50.85 65.83 59.7 65.83" style="fill:#9d9cb5"/></svg>