<?xml version="1.0" encoding="utf-8"?>
<!-- Generator: Adobe Illustrator 24.2.3, SVG Export Plug-In . SVG Version: 6.00 Build 0)  -->
<svg version="1.1" id="_x32_cf41747-0c0c-4d70-aad4-093c093adad4"
	 xmlns="http://www.w3.org/2000/svg" xmlns:xlink="http://www.w3.org/1999/xlink" x="0px" y="0px" viewBox="0 0 1022.8 813.2"
	 style="enable-background:new 0 0 1022.8 813.2;" xml:space="preserve">
<style type="text/css">
	.st0{fill:#63E8FF;}
	.st1{opacity:0.1;fill:#63E8FF;enable-background:new    ;}
	.st2{fill:url(#SVGID_1_);}
	.st3{fill:#BE6F72;}
	.st4{opacity:0.1;enable-background:new    ;}
	.st5{fill:#3E373A;}
	.st6{fill:#4B4B5B;}
	.st7{opacity:2.000000e-02;enable-background:new    ;}
	.st8{fill:#E7C7CA;}
	.st9{fill:#C3C7D9;}
	.st10{opacity:0.1;}
	.st11{opacity:0.1;fill:none;stroke:#000000;stroke-miterlimit:10;enable-background:new    ;}
	.st12{fill:#D5D6DB;}
	.st13{opacity:0.3;fill:#FFFFFF;enable-background:new    ;}
	.st14{fill:#FFD037;}
	.st15{fill:#65617D;}
	.st16{fill:#9D9CB5;}
</style>
<path class="st0" d="M261.3,94.5c0,0-8.6-0.6-7.6,6c0,0-0.2,1.2,0.8,1.7c0,0,0-0.5,0.9-0.3c0.3,0.1,0.6,0.1,0.9,0
	c0.4,0,0.8-0.2,1.1-0.5l0,0c0,0,2.4-1.1,3.4-5.4c0,0,0.7-0.9,0.7-1.2l-1.5,0.7c0,0,0.5,1.1,0.1,2.1c0,0,0-2.1-0.3-2
	c-0.1,0-0.8,0.4-0.8,0.4s0.9,2,0.2,3.5c0,0,0.2-2.5-0.5-3.3l-1,0.7c0,0,1,2.1,0.3,3.8c0,0,0.2-2.6-0.5-3.6l-0.9,0.8
	c0,0,0.9,2,0.4,3.4c0,0-0.1-3-0.6-3.2c0,0-0.8,0.8-0.9,1.1c0,0,0.6,1.5,0.2,2.3c0,0-0.2-2-0.5-2c0,0-0.8,1.3-0.9,2.2
	c0-0.8,0.3-1.7,0.7-2.4c-0.5,0.1-0.9,0.3-1.2,0.7c0,0,0.1-0.9,1.4-1c0,0,0.7-1,0.8-1.1c0,0-1.3-0.1-2.1,0.3c0,0,0.7-0.9,2.3-0.5
	l0.9-0.8c0,0-1.7-0.2-2.4,0c0,0,0.8-0.8,2.7-0.2l1-0.7c0,0-1.5-0.3-2.3-0.2c0,0,0.9-0.5,2.6,0l0.7-0.3c0,0-1.1-0.2-1.4-0.3
	c-0.3,0-0.3-0.1-0.3-0.1c0.7-0.1,1.4,0,2,0.2C259.8,95.2,261.4,94.6,261.3,94.5z"/>
<path class="st1" d="M259.5,112.2c0,0-3.8-8.5-8.5-4.3c0,0-1,0.4-1,1.6c0,0,0.4-0.2,0.7,0.7c0.1,0.3,0.2,0.6,0.4,0.9
	c0.2,0.4,0.6,0.7,1,0.8l0,0c0,0,2.1,1.8,6,0.6c0,0,1.1,0.2,1.3,0.1l-1.3-1.1c0,0-0.7,1-1.6,1.1c0,0,1.6-1,1.4-1.3
	c0,0-0.7-0.5-0.7-0.5s-1.2,1.8-2.7,1.9c0,0,2.1-1,2.4-2.1l-1-0.7c0,0-1.2,2-2.8,2.1c0,0,2.1-1.1,2.6-2.3l-1.1-0.5c0,0-1.2,1.9-2.6,2
	c0,0,2.4-1.5,2.3-2.1c0,0-1-0.4-1.3-0.4c0,0-0.9,1.3-1.7,1.3c0,0,1.5-1.2,1.4-1.4c0,0-1.5-0.1-2.2,0.2c0.7-0.4,1.5-0.5,2.2-0.5
	c-0.3-0.4-0.7-0.7-1.2-0.8c0,0,0.8-0.3,1.5,0.9c0,0,1.1,0.1,1.3,0.3c0,0-0.5-1.3-1.2-1.9c0,0,1,0.2,1.5,2l1.1,0.5
	c0,0-0.6-1.8-1.2-2.3c0,0,1,0.4,1.5,2.5l1,0.6c0,0-0.4-1.6-1-2.3c0,0,0.9,0.6,1.2,2.5l0.6,0.5c0,0-0.3-1.1-0.5-1.5
	c-0.1-0.3-0.1-0.4-0.1-0.4c0.4,0.6,0.7,1.3,0.8,2C258.2,111.1,259.4,112.3,259.5,112.2z"/>
<path class="st1" d="M329.3,165.2c0,0-3.8-8.5-8.5-4.3c0,0-1,0.4-1,1.6c0,0,0.4-0.2,0.7,0.7c0.1,0.3,0.2,0.6,0.4,0.9
	c0.2,0.4,0.6,0.7,1,0.8l0,0c0,0,2.1,1.8,6,0.6c0,0,1.1,0.2,1.3,0.1l-1.3-1.1c0,0-0.7,1-1.6,1.1c0,0,1.6-1.1,1.4-1.3
	c0,0-0.7-0.5-0.7-0.5s-1.2,1.8-2.7,1.9c0,0,2.1-1,2.4-2.1l-1-0.7c0,0-1.2,2-2.8,2.1c0,0,2.1-1.1,2.6-2.3l-1.1-0.5c0,0-1.2,1.9-2.6,2
	c0,0,2.4-1.5,2.3-2.1c0,0-1-0.4-1.3-0.4c0,0-0.9,1.3-1.7,1.3c0,0,1.5-1.2,1.4-1.4c0,0-1.5-0.1-2.2,0.2c0.7-0.4,1.5-0.5,2.2-0.5
	c-0.3-0.4-0.7-0.7-1.2-0.8c0,0,0.8-0.3,1.5,0.9c0,0,1.1,0.1,1.3,0.3c0,0-0.5-1.3-1.2-1.9c0,0,1,0.2,1.5,2l1.1,0.5
	c0,0-0.6-1.8-1.2-2.3c0,0,1,0.4,1.5,2.5l1,0.6c0,0-0.4-1.6-1-2.3c0,0,0.9,0.6,1.2,2.5l0.6,0.5c0,0-0.3-1.1-0.5-1.5
	c-0.1-0.3-0.1-0.4-0.1-0.4c0.4,0.6,0.7,1.3,0.8,2C328,164.1,329.2,165.2,329.3,165.2z"/>
<ellipse class="st1" cx="329.7" cy="162" rx="5.2" ry="0.6"/>
<linearGradient id="SVGID_1_" gradientUnits="userSpaceOnUse" x1="378.8837" y1="594.7997" x2="378.8837" y2="719.3347" gradientTransform="matrix(1 0 0 -1 -88.58 770.58)">
	<stop  offset="0" style="stop-color:#808080;stop-opacity:0.25"/>
	<stop  offset="0.54" style="stop-color:#808080;stop-opacity:0.12"/>
	<stop  offset="1" style="stop-color:#808080;stop-opacity:0.1"/>
</linearGradient>
<path class="st2" d="M328.4,144.8c-1.5-4.4-9.6-4.8-13.2-3.7c-2.5,0.8-7.8,1.7-10.7,2.2l-0.2-0.2c0.4-0.1,0.4-0.4,0.3-0.8
	c0-0.6,0-1.1,0-1.7c1.7,0.6,3.3-0.8,3.3-0.8l0,0c2-1,1.5-5.2,1.9-6.4c0.3-0.9,0.6-6,0.7-8.4h0l0-1c0-0.4,0-0.6,0-0.6
	s0.2-6.2,0.6-7.5c0.4-1.2,0.7-7,0.8-7.9v-0.1l-0.1-0.5c0-0.4,0-0.8,0-1.3c0-2.1-0.2-5.2-0.2-5.2s0-0.3,0-0.4c0-0.9-0.1-5.3-3.6-7
	c-1.3-0.6-2.8-1.4-4.3-2.1c-0.4-3.6-1.3-7.2-1.2-10.9c0-0.5,0-1.1,0.1-1.6c0,0.2,0,0.3,0,0.5c0,0.4,0,0.6,0,0.9
	c0.1-4.6,1.7-9.3,1.6-13.8c0,0.4,0,0.9-0.1,1.3c0.1-1.5-0.1-3.1-0.4-4.6c-0.1-0.5-0.3-1.1-0.7-1.4c-0.4-0.3-0.8-0.5-1.2-0.5
	c-1.1-0.3-2.2-0.5-3.3-0.7c-0.2-0.6-0.4-1.1-0.7-1.6c-2.3-3.5-5.7-6.7-9.7-7.4c-2-0.4-4.3-0.1-5.7,1.5c-0.1,0.1-0.3,0.3-0.4,0.4
	c-0.8,1-1.1,2.3-1.9,3.3c0,0-0.1,0.1-0.1,0.1c-1.5,1.5-3.8,1.8-5.4,3.1c-0.3,0.2-0.6,0.5-0.8,0.8c-0.7,0.7-1.3,1.5-1.8,2.4
	c-0.7,1.1-1.5,2.3-1.7,3.7c-0.5,2.7,1.2,5.3,1.5,8.1c0.7,6.1-5.5,11.6-4.3,17.7c0.3,1.5,1,2.8,2,3.9c-2.4,2.4-4.5,4.7-4.5,4.7v0.3
	h-0.5l0,0.4h0l0.2,2.6l0,3.9c0,0,0,0,0,0.1v0v0.1c0,0,0,0,0,0.1h0c0.1,1.4,0.3,6.6,0.7,7.7c0.4,1.3,0.6,7.5,0.6,7.5s0.4,8.8,0.8,10
	s-0.2,5.4,1.9,6.4l0,0c0.6,0.5,1.3,0.8,2.1,0.9c-0.1,0.9,0,1.6,0.3,1.8c0.1,0.1,0.3,0.1,0.5,0.1c-0.1,0.2-0.3,0.5-0.4,0.7
	c-0.8-0.1-1.6-0.3-2.4-0.6c-2.2-1-9.5-3.2-11.6-1.7c-2.1,1.6-7.2,3-4.9,9.3c2.4,6.3,3.5,6.5,3.5,6.5c0.7,0.6,1.4,1.3,1.9,2.1
	c0.7,1.2,7.3,3.8,9,3.8c0.7,0,1.4,0,2.1,0.1c0,0-1.8,1.7-1.6,2.7c0.2,1-0.5,9-0.5,9s1.8,2,2.6-0.6l0,0c0.1,0.2,0.9,1.2,2.4,0
	c0.6-0.5,1.2-0.9,1.9-1.3l7.2-1.1c0.7-0.1,1.5-0.1,2.2,0c1.1,0.1,2.3-0.6,3-1.2c1.5,0.6,3.2,1.3,3.9,1.5c1.6,0.5,9,2.7,10.7,2
	c0.4-0.2,0.7-0.4,0.9-0.7l1.6,0.1l-0.8,0.2c0,0,1.5,0,3.5,0.1l-0.1,0.1h2.3c0,0,8-0.1,8.5-0.2c0.9-0.2,6.7,0.2,6.7,0.2h0.4
	c0,0,4.9-1.3,2.9-6.8c-1.6-4.2-6.4-5.4-8.5-5.8c0.6-0.1,1.1-0.2,1.5-0.3c1.5-0.2,4.4-1.7,4.6-2.2c0.2-0.5,2.7-2,3.3-2.8
	C328.1,155.1,329.9,149.2,328.4,144.8z M287.4,157.1l-0.2,0.1l-0.2,0.1l-0.3,0.3c-0.2-0.2-0.5-0.4-0.8-0.6
	C286.4,157,286.9,157.1,287.4,157.1z M309,164.1L309,164.1z"/>
<path class="st3" d="M301.8,131c0,0,3.5,9.9,5.4,8.9c2-1,1.4-5.2,1.8-6.4c0.4-1.2,0.8-9.9,0.8-9.9s0.2-6.2,0.6-7.5
	c0.3-1.2,0.6-7,0.7-7.9c0-0.1,0-0.1,0-0.1l-0.4-7.2l-2.1-0.6l-4.9,2l-0.7,4.2l-0.3,1.7l-0.1,0.7L301.8,131z"/>
<path class="st4" d="M303,129.3c0,0,3.3,3,4.3,3.2c1,0.3,1.6,2.6,1.6,2.6"/>
<path class="st3" d="M274.6,131.4c0,0-3.5,9.9-5.4,8.9c-2-1-1.4-5.2-1.8-6.4c-0.4-1.2-0.8-9.9-0.8-9.9s-0.2-6.2-0.6-7.5
	c-0.3-1.2-0.6-7-0.7-7.9c0-0.1,0-0.1,0-0.1l0.4-7.2l2.1-0.6l4.9,2l0.7,4.2l0.3,1.7l0.1,0.7L274.6,131.4z"/>
<rect x="289.7" y="78.4" class="st5" width="7.7" height="13.1"/>
<rect x="289.7" y="78.4" class="st4" width="7.7" height="13.1"/>
<path class="st6" d="M273.4,141.3c0,0-2.6,3.2-1.7,3.8c1,0.6,7.3,11.4,7.3,11.4s20.9,2.8,24.8-1.4s3.9-11.7,3.9-11.7
	s-3.2,0.7-3.5,0.3c-0.3-0.4-2.2-2.4-2.2-2.4S275.2,139.5,273.4,141.3z"/>
<path class="st7" d="M273.4,141.3c0,0-2.6,3.2-1.7,3.8c1,0.6,7.3,11.4,7.3,11.4s20.9,2.8,24.8-1.4s3.9-11.7,3.9-11.7
	s-3.2,0.7-3.5,0.3c-0.3-0.4-2.2-2.4-2.2-2.4S275.2,139.5,273.4,141.3z"/>
<path class="st3" d="M310.9,101.1l-6.8,5.9l-2.1,0.2l-0.8,0.1l-12.7,1l-13.1-1.1l-2-0.2l-2.5-0.2l-5.2-5.5c0,0,3.7-4.3,6.9-7.2
	c1.3-1.2,2.5-2.1,3.4-2.5l0.1-0.1c0.6-0.2,1-0.6,1.4-1.1c2.6-2.9,4.9-10,4.9-10s11.3-6.4,9.9,2c-1.4,8.3,5.1,6.3,5.1,6.3l2.1,1.1
	l0.8,0.4l2.1,1.1l4.8,2.4C311.2,95.7,310.9,101.1,310.9,101.1z"/>
<ellipse class="st4" cx="288.1" cy="76.3" rx="10.1" ry="11.1"/>
<path class="st4" d="M310.8,108.9h-45.5c0-0.1,0-0.1,0-0.1l0.4-7.2c0,0,3.7-4.3,6.9-7.2l28.6-1.2l1.3-1.5l4.8,2.4
	c3.8,1.9,3.5,7.3,3.5,7.3S311.3,107.5,310.8,108.9z"/>
<path class="st8" d="M310.8,108.6h-45.5c0-0.1,0-0.1,0-0.1l0.4-7.2c0,0,3.7-4.3,6.9-7.2l28.6-1.2l1.3-1.5l4.8,2.4
	c3.8,1.9,3.5,7.3,3.5,7.3S311.3,107.2,310.8,108.6z"/>
<path class="st4" d="M280.8,88.6c0,0,7.2,10,16.7-0.2c9.6-10.2,1.1,22.8,1.1,22.8l-20.6,2.7L280.8,88.6z"/>
<path class="st8" d="M280.8,89.1c0,0,7.2,10,16.7-0.2c9.6-10.2,1.1,22.8,1.1,22.8l-20.6,2.7L280.8,89.1z"/>
<path class="st4" d="M300.4,90.7l0.8,12.7l0.8,4.2l0.6,3.2c0,0,1.6,24.9,1.1,26.2s0.2,2.2,0.3,2.9s-0.1,2.3,0,3.1
	c0.1,0.7,0,1.1-1.7,0.8c-1.7-0.3-4.2-0.7-4.2-0.7s-6.1,0.5-8.3-0.3s-6.1-0.8-6.1-0.8s-6.1,0.2-8-0.1c-2-0.2-3,2.7-4.3,1.8
	c-1.3-0.8,1.5-8.9,2.4-11.2c0.9-2.3-1.2-8.2-1.2-8.2l2.7-16.6l0.6-3.8V92.1l0.2-0.1c0.6-0.2,1-0.6,1.4-1.1l0.7,11.9l21.4,0.8V90.4"
	/>
<path class="st8" d="M300.4,90.2l0.8,12.7l0.8,4.2l0.6,3.2c0,0,1.6,24.9,1.1,26.2s0.2,2.2,0.3,2.9s-0.1,2.3,0,3.1
	c0.1,0.7,0,1.1-1.7,0.8c-1.7-0.3-4.2-0.7-4.2-0.7s-6.1,0.5-8.3-0.3c-2.1-0.8-6.1-0.8-6.1-0.8s-6.1,0.2-8-0.1c-2-0.2-3,2.7-4.3,1.8
	c-1.3-0.8,1.5-8.9,2.4-11.2c0.9-2.3-1.2-8.2-1.2-8.2l2.7-16.6l0.6-3.8V91.6l0.2-0.1c0.6-0.2,1-0.6,1.4-1.1l0.7,11.9l21.4,0.8V89.7"
	/>
<path class="st4" d="M303,63.9c-0.1-0.5-0.3-1.1-0.7-1.4c-0.4-0.3-0.8-0.5-1.2-0.5c-1-0.3-2.1-0.5-3.1-0.7c-0.2-0.6-0.4-1.1-0.7-1.5
	c-2.2-3.4-5.5-6.7-9.4-7.4c-2-0.4-4.4,0-5.7,1.7c-0.7,1-1,2.2-1.7,3.2c-1.4,1.8-3.9,2.1-5.6,3.5c-0.9,0.7-1.6,1.8-2.3,2.9
	c-0.7,1.1-1.4,2.3-1.7,3.7c-0.5,2.7,1.2,5.3,1.5,8c0.7,6.1-5.3,11.5-4.2,17.5c0.7,3.5,3.6,6,6.7,7.2c1.1,0.4,2.3,0.9,2.8,2
	c0.2,0.5,0.3,1.1,0.5,1.6c0.7,1.7,3.1,1.7,4.3,0.5s1.7-3.2,1.8-5c0.6-8-2.3-15.9-2-24c0.1-2.4,0.7-5.2,2.7-6.3
	c2.7-1.5,5.9,1,8.9,0.5c1.4,3.7,1.7,7.8,0.8,11.7c-0.5,2.1-1.3,4.2-1.3,6.4c-0.1,3.4,1.6,6.4,3,9.4c0.3,0.6,0.5,1.2,0.6,1.8
	c0,0.7-0.1,1.3-0.3,1.9c-0.8,2.4-2.2,4.6-2.4,7.1c0,0.3,0,0.6,0.2,0.8c0.2,0.2,0.4,0.3,0.6,0.3c2.4,0.5,4.6-1.9,5.8-4.3
	c1.3-2.6,2.1-5.6,2.3-8.6c0.2-5-1.4-10-1.3-15.1C302,75.2,304.4,69.4,303,63.9z"/>
<path class="st5" d="M303.2,63.6c-0.1-0.5-0.3-1.1-0.7-1.4c-0.4-0.3-0.8-0.5-1.2-0.5c-1-0.3-2.1-0.5-3.1-0.7
	c-0.2-0.6-0.4-1.1-0.7-1.5c-2.2-3.4-5.5-6.7-9.4-7.4c-2-0.4-4.4,0-5.7,1.7c-0.7,1-1,2.2-1.7,3.2c-1.4,1.8-3.9,2.1-5.6,3.5
	c-0.9,0.7-1.6,1.8-2.3,2.9c-0.7,1.1-1.4,2.3-1.7,3.7c-0.5,2.7,1.2,5.3,1.5,8c0.7,6.1-5.3,11.5-4.2,17.5c0.7,3.5,3.6,6,6.7,7.2
	c1.1,0.4,2.3,0.9,2.8,2c0.2,0.5,0.3,1.1,0.5,1.6c0.7,1.7,3.1,1.7,4.3,0.5c1.3-1.2,1.7-3.2,1.8-5c0.6-8-2.3-15.9-2-24
	c0.1-2.4,0.7-5.2,2.7-6.3c2.7-1.5,5.9,1,8.9,0.5c1.4,3.7,1.7,7.8,0.8,11.7c-0.5,2.1-1.3,4.2-1.3,6.4c-0.1,3.4,1.6,6.4,3,9.4
	c0.3,0.6,0.5,1.2,0.6,1.8c0,0.7-0.1,1.3-0.3,1.9c-0.8,2.4-2.2,4.6-2.4,7.1c0,0.3,0,0.6,0.2,0.8c0.2,0.2,0.4,0.3,0.6,0.3
	c2.4,0.5,4.6-1.9,5.8-4.3c1.3-2.6,2.1-5.6,2.3-8.6c0.2-5-1.4-10-1.3-15.1C302.2,75,304.6,69.2,303.2,63.6z"/>
<polygon class="st9" points="298.2,173.4 307.2,173.7 305.9,166.4 299,167.1 "/>
<path class="st6" d="M326,156.1c-0.6,0.8-2.9,2.3-3.2,2.8c-0.2,0.5-3,2-4.5,2.2c-1.4,0.2-6,1.3-6.8,1.9c-0.6,0.4-5.4,1.7-8.5,2.5
	c-0.9,0.2-1.7,0.4-2.6,0.5c-1.4,0.1-16.2-5.5-16.2-5.5l2.9-3.2l0.2-0.1c0.8-0.3,4.6-1.7,6.6-2.3c2.3-0.7,5.1-3.8,5.1-3.8
	s4-1.5,4.5-1.7s-1.4-5.8-1.4-5.8s8.7-1.3,12.1-2.4c3.4-1.1,11.3-0.7,12.7,3.7C328.4,149.3,326.7,155.3,326,156.1z"/>
<path class="st8" d="M286.5,170.1c0,0-1.7,2-3.5,1.8c-1.7-0.2-7.8,0.5-7.8,0.5c-1.1,0.5-2.1,1.1-3.1,1.9c-1.4,1.2-2.2,0.2-2.3,0l0,0
	c-0.8,2.6-2.5,0.6-2.5,0.6s0.8-7.9,0.5-8.9s1.5-2.7,1.5-2.7l2-0.6l5.2-1.4l7.4,2.8L286.5,170.1z"/>
<path class="st4" d="M271.3,162.8l-1.5,11.6l0,0c-0.8,2.6-2.5,0.6-2.5,0.6s0.8-7.9,0.5-8.9s1.5-2.7,1.5-2.7L271.3,162.8z"/>
<path class="st4" d="M282,129.7c0,0,4,1.5,7.5,0"/>
<path class="st4" d="M295.7,132.6c0,0,1.7,0.9,2.9,0"/>
<path class="st4" d="M295.7,134.7c0,0,2.8,0.4,3.3-0.4"/>
<path class="st4" d="M294.8,139.3c0,0,5.2-0.7,6.6-1.7"/>
<path class="st4" d="M278.8,137.6c0,0,2.9,1.8,5.1,1.7"/>
<path class="st4" d="M303.1,165.5c-0.9,0.2-1.7,0.4-2.6,0.5c-1.4,0.1-16.2-5.5-16.2-5.5l2.9-3.2l0.2-0.1c0.5,0.3,0.8,0.6,1.1,0.9
	c1.2,1.1,2.5-0.3,2.9-0.3s4.4,3.6,4.4,3.6s3.6,0.9,4.2,1.7c0.6,0.8,2.7,0.7,3.1,1.2C303.1,164.5,303.1,165,303.1,165.5z"/>
<path class="st6" d="M275.2,144c0,0-3.7,0.2-5.8-0.7c-2.1-1-9.1-3.2-11.2-1.6c-2,1.6-7,3-4.7,9.3c2.3,6.3,3.3,6.4,3.3,6.4
	c0.7,0.6,1.3,1.3,1.8,2.1c0.7,1.2,7,3.8,8.6,3.8s4.4,0,8.3,3c3.9,3,7.5,3.3,7.5,3.3s5,2.2,6.5,2.7c1.6,0.5,8.6,2.6,10.3,2
	c1.7-0.7,2.7-4.8,2.7-4.8s0.8-3.7,0.4-4.3c-0.4-0.6-2.5-0.4-3.1-1.2c-0.6-0.8-4.2-1.7-4.2-1.7s-3.9-3.6-4.4-3.6
	c-0.5,0-1.7,1.4-2.9,0.3c-2.5-2-5.1-3.8-7.8-5.5C277.7,151.8,275.2,144,275.2,144z"/>
<path class="st4" d="M267.8,146.4c1.3-0.3,2.7,0.1,3.7,1.1c1.8,1.7,7.9,5,7.9,5"/>
<path class="st4" d="M313.1,146.3c0,0-8.1,1.3-9.6,3.2"/>
<path class="st8" d="M322.4,173.5h-0.4c-1.3,0-5.6-0.2-6.4,0c-1,0.2-14,0-14,0l2.5-0.6c0,0-0.9-3.6-0.3-3.9c0,0-3.4-2.4-0.8-4.1
	c2.6-1.7,5.3-1,5.3-1l6.4-2.4l1.2-0.5c0,0,7.3,0.4,9.2,5.9S322.4,173.5,322.4,173.5z"/>
<path class="st4" d="M322.4,173.5h-0.4c2.1-1.9,6.9-7.7-7.3-11.9l1.2-0.5c0,0,7.3,0.4,9.2,5.9C327.2,172.5,322.4,173.5,322.4,173.5z
	"/>
<ellipse class="st6" cx="309.1" cy="166.8" rx="0.4" ry="0.4"/>
<ellipse class="st6" cx="306.8" cy="167.6" rx="0.4" ry="0.4"/>
<g class="st10">
	<path d="M295.6,75.9c0.1-2.7-0.4-5.4-1.3-8c-2.9,0.5-6.2-2-8.9-0.5c-2,1.1-2.6,3.9-2.7,6.3c0,0.6,0,1.3,0,1.9c0-0.2,0-0.5,0-0.7
		c0.1-2.4,0.7-5.2,2.7-6.3c2.7-1.5,5.9,1,8.9,0.5C295.1,71.3,295.5,73.6,295.6,75.9z"/>
	<path d="M272.7,75.4c0-0.5,0-1.1,0-1.6c-0.2-2.2-1.3-4.3-1.5-6.4c-0.3,2.6,1.2,5,1.5,7.6C272.7,75.2,272.7,75.3,272.7,75.4z"/>
	<path d="M284.7,97.7c-0.1,1.8-0.5,3.8-1.8,5c-1.3,1.2-3.6,1.2-4.3-0.5c-0.2-0.5-0.3-1.1-0.5-1.6c-0.5-1.1-1.7-1.6-2.8-2
		c-3.1-1.3-6-3.7-6.7-7.2c-0.1-0.3-0.1-0.6-0.1-1c-0.1,0.7,0,1.5,0.1,2.2c0.7,3.5,3.6,6,6.7,7.2c1.1,0.4,2.3,0.9,2.8,2
		c0.2,0.5,0.3,1.1,0.5,1.6c0.7,1.7,3.1,1.7,4.3,0.5s1.7-3.2,1.8-5c0.1-1,0.1-1.9,0.1-2.9C284.7,96.6,284.7,97.1,284.7,97.7z"/>
	<path d="M302.1,79.5c0,0.4,0,0.7,0,1.1c0.1-4.6,1.7-9.2,1.5-13.8C303.6,71,302.2,75.3,302.1,79.5z"/>
	<path d="M297.3,98.2c0.1-0.3,0.1-0.6,0.1-0.9c-0.1-0.6-0.3-1.3-0.6-1.8c-1.3-2.7-2.8-5.5-3-8.5c0,0.1,0,0.2,0,0.4
		c-0.1,3.4,1.6,6.4,3,9.4C297,97.2,297.2,97.7,297.3,98.2z"/>
	<path d="M303.5,94.6c-0.2,3-1,5.9-2.3,8.6c-1.2,2.4-3.3,4.8-5.8,4.3c-0.2,0-0.4-0.1-0.6-0.3c0-0.1-0.1-0.1-0.1-0.2
		c0,0.2,0,0.4-0.1,0.6c0,0.3,0,0.6,0.2,0.8c0.2,0.2,0.4,0.3,0.6,0.3c2.4,0.5,4.6-1.9,5.8-4.3c1.3-2.6,2.1-5.6,2.3-8.6
		c0-0.6,0-1.2,0-1.7C303.5,94.3,303.5,94.4,303.5,94.6z"/>
</g>
<path class="st11" d="M303.8,169.2c0,0,5.7,2.6,9.5-3.2"/>
<path class="st11" d="M305,173.8c0,0,4.7-3.3,10.7-0.1"/>
<path class="st11" d="M273.6,173c0,0,2-4.9,7.2-1.2"/>
<path class="st4" d="M267.2,101.3l4-4c0,0,15.6-1.1,16.2,4.7c0,0,5.5-6.9,17.1-5.3l4.9,4.3l-13.6,6.5l-13.2,5l-9.7-4.8L267.2,101.3z
	"/>
<path class="st12" d="M267.2,101.5l4-4c0,0,15.6-1.1,16.2,4.7c0,0,5.5-6.9,17.1-5.3l4.9,4.3l-13.6,6.5l-13.2,5l-9.7-4.8L267.2,101.5
	z"/>
<polygon class="st4" points="265.5,102 267.2,125.2 286,126.3 285.2,103.2 285.2,102.8 "/>
<polygon class="st0" points="265.5,101.5 267.2,124.7 286,125.8 285.2,102.7 285.2,102.3 "/>
<polygon class="st4" points="310.4,101.5 290.9,104.7 290.9,128 309.9,125 "/>
<polygon class="st0" points="310.4,101 290.9,104.2 290.9,127.5 309.9,124.5 "/>
<polygon class="st13" points="305.7,106.7 295.2,108 295.4,111.9 305.7,110.7 "/>
<path class="st3" d="M268.3,137.2l1.1,3.1c0,0,1.6,1.5,3.3,0.7c1.7-0.7,3.2-1.1,4-1.8c0.8-0.7,1.8-4.4,1.8-4.4s1.1-4,2.1-5
	s3.9-14.7,0-13.3c-3.9,1.3-6.8,13.7-6.8,13.7s-0.7,0.9-1.7,1c-1,0.1-2.9-0.2-3.3,0.7C268.4,133,267.1,135.4,268.3,137.2z"/>
<path class="st4" d="M290.9,104.7c-2,0.5-4.1-0.1-5.7-1.6l0.8,23.1c0,0,1.9,2.3,4.9,1.8V104.7z"/>
<path class="st0" d="M290.9,104.2c-2,0.5-4.1-0.1-5.7-1.6l0.8,23.1c0,0,1.9,2.3,4.9,1.8V104.2z"/>
<path class="st4" d="M290.9,104.2c-2,0.5-4.1-0.1-5.7-1.6l0.8,23.1c0,0,1.9,2.3,4.9,1.8V104.2z"/>
<path class="st4" d="M291.4,101.6c0,0,7.9-2.6,10-2.3"/>
<path class="st4" d="M282.5,100.5c0,0-7.7-2-8.9-1.4"/>
<path class="st4" d="M296.3,101.9c0,0,5.3-2.1,7.2-1.1"/>
<path class="st4" d="M293.7,155c0.8-0.7,1.7-1.3,2.6-1.8c1.4-0.7,3.9-2.6,3.9-2.6"/>
<path class="st4" d="M273.6,129.7c0,0-3.3,3-4.3,3.2c-1,0.3-1.6,2.6-1.6,2.6"/>
<path class="st3" d="M308.4,136.7l-1.1,3.1c0,0-1.6,1.5-3.3,0.7s-3.2-1.1-4-1.8s-1.8-4.4-1.8-4.4s-1.1-4-2.1-5
	c-1.1-1-3.9-14.7,0-13.3c3.9,1.3,6.8,13.7,6.8,13.7s0.7,0.9,1.7,1c1,0.1,2.9-0.2,3.3,0.7C308.2,132.5,309.5,134.9,308.4,136.7z"/>
<path class="st4" d="M306.5,130.9c0,0,2.2,1.5,2.2,3.3"/>
<ellipse class="st3" cx="288.2" cy="75.8" rx="10.1" ry="11.1"/>
<path class="st5" d="M281.8,72.8c1.2-0.2,2.3-1,3.5-1.4c2.6-1,5.5-0.3,8.2,0.6c1,0.3,2.1,0.7,3.1,0.7c1.1,0,2.2-0.5,2.8-1.5
	c0.5-0.9,0.4-2.1,0-3.1c-0.4-1-1.1-1.8-1.8-2.5c-2.4-2.4-5.3-4.7-8.5-4.5c-1.3,0.1-2.5,0.6-3.7,1.2c-1.5,0.7-3,1.5-4.4,2.4
	c-1.1,0.7-3.1,1.6-3.7,2.9C275.7,70.5,279.6,73.2,281.8,72.8z"/>
<path class="st4" d="M299.3,70.2c-0.5,1-1.7,1.5-2.8,1.5c-1.1,0-2.1-0.4-3.1-0.7c-2.7-0.9-5.6-1.6-8.2-0.6c-1.2,0.4-2.3,1.2-3.5,1.4
	c-1.8,0.3-4.7-1.4-5-3.6c-0.4,2.5,3,4.7,5,4.3c1.2-0.2,2.3-1,3.5-1.4c2.6-1,5.5-0.3,8.2,0.6c1,0.3,2.1,0.7,3.1,0.7
	c1.1,0,2.2-0.5,2.8-1.5c0.3-0.6,0.4-1.2,0.3-1.8C299.6,69.5,299.5,69.8,299.3,70.2z"/>
<path class="st0" d="M339.7,130c0,0,1.3,1.9-0.6,4.8c-2,2.9-3.6,5.4-2.9,7.2c0,0,3-5.4,5.4-5.5C343.9,136.4,342.3,133.2,339.7,130z"
	/>
<path class="st4" d="M339.7,130c0.1,0.2,0.2,0.4,0.3,0.6c2.4,3,3.6,5.8,1.3,5.9c-2.1,0.1-4.6,4.2-5.2,5.2c0,0.1,0,0.2,0.1,0.2
	c0,0,3-5.4,5.4-5.5C343.9,136.4,342.3,133.2,339.7,130z"/>
<path class="st14" d="M342.2,132.4c0,0.7-0.1,1.2-0.2,1.2c-0.1,0-0.2-0.5-0.2-1.2c0-0.7,0.1-0.4,0.2-0.4S342.2,131.8,342.2,132.4z"
	/>
<path class="st14" d="M343,133.3c-0.5,0.3-1,0.5-1.1,0.4c0-0.1,0.4-0.4,0.9-0.7s0.3-0.1,0.4,0C343.3,133,343.6,132.9,343,133.3z"/>
<path class="st0" d="M332.6,130c0,0-1.3,1.9,0.6,4.8c2,2.9,3.6,5.4,2.9,7.2c0,0-3-5.4-5.4-5.5C328.3,136.4,329.9,133.2,332.6,130z"
	/>
<path class="st4" d="M332.6,130c-0.1,0.2-0.2,0.4-0.3,0.6c-2.4,3-3.6,5.8-1.3,5.9c2.1,0.1,4.6,4.2,5.2,5.2c0,0.1,0,0.2-0.1,0.2
	c0,0-3-5.4-5.4-5.5C328.3,136.4,329.9,133.2,332.6,130z"/>
<path class="st14" d="M330.1,132.4c0,0.7,0.1,1.2,0.2,1.2c0.1,0,0.2-0.5,0.2-1.2c0-0.7-0.1-0.4-0.2-0.4
	C330.1,132.1,330.1,131.8,330.1,132.4z"/>
<path class="st14" d="M329.2,133.3c0.5,0.3,1,0.5,1.1,0.4c0-0.1-0.4-0.4-0.9-0.7s-0.3-0.1-0.4,0C328.9,133,328.7,132.9,329.2,133.3z
	"/>
<ellipse class="st1" cx="336.1" cy="154.3" rx="14.1" ry="2.4"/>
<path class="st15" d="M343.4,139.2l-0.1,0.6l-0.1,0.9l0,0.4l-0.1,0.9l0,0.4l-0.1,0.8l-1.1,9.7c-0.1,0.9-1.4,1.5-2.9,1.5h-5.6
	c-1.6,0-2.8-0.7-2.9-1.5l-1.1-9.7l-0.1-0.8l0-0.4l-0.1-0.9l0-0.4l-0.1-0.9l-0.1-0.6c-0.1-0.5,0.6-0.9,1.5-0.9h11.5
	C342.7,138.3,343.4,138.7,343.4,139.2z"/>
<polygon class="st16" points="343.3,140.1 343.2,140.9 329,140.9 328.9,140.1 "/>
<polygon class="st16" points="343.1,141.2 343,142 329.2,142 329.1,141.2 "/>
<polygon class="st16" points="343,142.3 342.9,143 329.3,143 329.2,142.3 "/>
</svg>
