<svg id="_2cf41747-0c0c-4d70-aad4-093c093adad4" data-name=" 2cf41747-0c0c-4d70-aad4-093c093adad4" xmlns="http://www.w3.org/2000/svg" viewBox="0 0 64.29 90.02"><path d="M53.7,13.85l-9.51.1c-.45-2.31-1.95-8.37-.6-10A2.35,2.35,0,0,1,46,1.75C47.5-.67,50-.31,51.62,1.2c1.67.61,2.3,1.68,2.08,3.14a3.52,3.52,0,0,1,.91,4.09Z" style="fill:#2f2e41"/><path d="M52.78,20l-6.86-1-1.37-2.1c1.89-1.32,2.56-3.16,1.69-5.65L51,11.14a4.61,4.61,0,0,0,2.43,5Z" style="fill:#ffb9b9"/><path d="M44.3,85,44,88.73A1.18,1.18,0,0,0,45.09,90h.15l1.85-.12a.6.6,0,0,0,.54-.65v-.11l-1-4.29Z" style="fill:#e6e6e6"/><path d="M50.26,84.85l-1,4.29a.61.61,0,0,0,.42.74l.11,0,1.84.12a1.17,1.17,0,0,0,1.21-1.13.85.85,0,0,0,0-.16L52.56,85Z" style="fill:#e6e6e6"/><polygon points="52.68 85.49 50.19 85.23 47.72 57.46 46.78 85.14 44.34 85.05 40.22 46.71 55.95 46.71 52.68 85.49" style="fill:#63ffd9"/><ellipse cx="48.88" cy="8.03" rx="4.75" ry="4.99" style="fill:#ffb9b9"/><path d="M58.27,47.59l-19.21.23c2.85-11.4,4.56-22,1.58-29.26l4.75-2.44c2.29,2.51,4.85,2.25,7.6-.22l4.54,1.22A162.25,162.25,0,0,0,58.27,47.59Z" style="fill:#63ffd9"/><path d="M33.78,35.85l11.93,5,2.67.83A.91.91,0,0,0,49.52,41v0A1,1,0,0,0,49,39.84L46.24,39l-8.34-5.1L39.64,29,36,27Z" style="fill:#ffb9b9"/><path d="M33.89,26.76a12,12,0,0,1,5.49,4.66l4.43-6.76-3.17-6.1Z" style="fill:#63ffd9"/><path d="M54.23,7.23a9.22,9.22,0,0,0-5.67.06,5.38,5.38,0,0,1-4.15,0v-5l8.47.24Z" style="fill:#2f2e41"/><path d="M45.67,30a1.44,1.44,0,0,0-1.41,1.47l.56,12.21a1.44,1.44,0,0,0,1.41,1.47h6.35A1.44,1.44,0,0,0,54,43.72l.56-12.21A1.44,1.44,0,0,0,53.13,30Z" style="fill:#3f3d56"/><path d="M63.69,34.93l-10.4,4.34-.79.33-.07,0-2.63.81c-.34.1-.8-.37-1.07-.7a.93.93,0,0,1,0-1.16l.12-.12a.75.75,0,0,1,.35-.16l2.63-.54a.82.82,0,0,0,.26-.1l1.23-.75L59.65,33a.93.93,0,0,0,.37-1.1l-1.21-3.36a.91.91,0,0,1,.39-1.12l2-1.13a.84.84,0,0,1,1.17.37,1.19,1.19,0,0,1,.08.2l1.74,7A.93.93,0,0,1,63.69,34.93Z" style="fill:#ffb9b9"/><path d="M64.29,25.54A12,12,0,0,0,58.8,30.2l-4.43-6.76,3.16-6.32Z" style="fill:#63ffd9"/><path d="M52,12.47a8.32,8.32,0,0,1-6.53,0c.66-1.18-.32-2.11-.83-3.3l8.47-.26C52.5,9.94,51.55,11.17,52,12.47Z" style="fill:#fff"/><polygon points="53.06 9.1 52.96 9 53.1 8.85 53.93 7.84 54.03 7.93 53.2 8.95 53.06 9.1" style="fill:#fff"/><polygon points="44.01 8.6 44.1 8.48 44.93 9.21 44.84 9.33 44.01 8.6" style="fill:#fff"/><polygon points="51.84 12.36 53.3 9.96 53.42 10.04 51.96 12.44 51.84 12.36" style="fill:#fff"/><polygon points="44.14 10.04 44.25 9.96 45.71 12.36 45.59 12.44 44.14 10.04" style="fill:#fff"/><path d="M53.57,36.7v2.64l-.88.37-.08,0-2.94.9c-.37.12-.89-.41-1.2-.78a1,1,0,0,1,0-1.29l.13-.13a.82.82,0,0,1,.39-.18l2.93-.61a1,1,0,0,0,.3-.11Z" style="fill:#fff"/><path d="M54.83,27.28h-.5c0-7.45-1.46-12.64-2.88-12.64l-.13-.52c1.28,0,2.09,2.16,2.55,4A39.35,39.35,0,0,1,54.83,27.28Z" style="fill:#3f3d56"/><path d="M43.3,25.44h-.51c0-6.82,1.47-11.06,3.64-11.06l-.12.53C44.81,14.91,43.3,18.16,43.3,25.44Z" style="fill:#3f3d56"/><path d="M54.58,26.1a1.32,1.32,0,1,1-1.25,1.31A1.29,1.29,0,0,1,54.58,26.1Z" style="fill:#3f3d56"/><path d="M41.29,28.6h-.5c0-1.89,1-3.42,2.25-3.42v.52C42.08,25.7,41.29,27,41.29,28.6Z" style="fill:#3f3d56"/><path d="M45.3,28.6h-.5c0-1.6-.79-2.9-1.76-2.9v-.52C44.29,25.18,45.3,26.71,45.3,28.6Z" style="fill:#3f3d56"/><ellipse cx="45.05" cy="28.73" rx="0.5" ry="0.53" style="fill:#3f3d56"/><ellipse cx="41.04" cy="28.73" rx="0.5" ry="0.53" style="fill:#3f3d56"/><path d="M20.79,10.94,12,12.51a.9.9,0,0,1-1-.67c-.63-2.41-2-5.56-.67-7.14a2.5,2.5,0,0,1,2.6-2.32c1.58-2.59,4.2-2.2,6-.58,1.78.64,2.46,1.79,2.22,3.35a3.67,3.67,0,0,1,1.26,2.38,3.51,3.51,0,0,1-.9,2.67Z" style="fill:#2f2e41"/><path d="M19.42,18.23l-6.83-.42a8.21,8.21,0,0,0,.67-4.64h5.09A24.22,24.22,0,0,0,19.42,18.23Z" style="fill:#9f616a"/><path d="M11.2,84.48l-.28,4a1.26,1.26,0,0,0,1.13,1.37h.16l2-.13a.64.64,0,0,0,.58-.69l0-.12-1.09-4.59Z" style="fill:#e6e6e6"/><path d="M17.57,84.35l-1.09,4.59a.66.66,0,0,0,.45.79l.11,0,2,.13a1.25,1.25,0,0,0,1.29-1.2.54.54,0,0,0,0-.18l-.28-4Z" style="fill:#e6e6e6"/><polygon points="20.15 85.04 17.49 84.76 14.85 55.1 13.85 84.67 11.24 84.57 6.85 43.63 23.64 43.63 20.15 85.04" style="fill:#63ffd9"/><ellipse cx="15.94" cy="9.55" rx="5.07" ry="5.32" style="fill:#9f616a"/><path d="M21.66,7a14.67,14.67,0,0,0-6.05,0,8.46,8.46,0,0,1-4.43,0V3.5l9,.17Z" style="fill:#2f2e41"/><path d="M19.32,13.82a8.88,8.88,0,0,1-7,0c.7-1.26-.35-2.25-.89-3.53l9-.28C19.81,11.12,18.79,12.43,19.32,13.82Z" style="fill:#fff"/><polygon points="10.75 9.68 10.84 9.57 11.73 10.34 11.64 10.46 10.75 9.68" style="fill:#fff"/><polygon points="19.11 13.71 20.67 11.14 20.79 11.22 19.23 13.79 19.11 13.71" style="fill:#fff"/><polygon points="10.88 11.22 11 11.14 12.56 13.71 12.44 13.79 10.88 11.22" style="fill:#fff"/><path d="M6.3,33.83,2.41,31.3,5.73,21.12a4.77,4.77,0,0,1,2-2.5L8.84,18l.1,10.27Z" style="fill:#63ffd9"/><path d="M23.09,38.78l-.58-5.17A18.83,18.83,0,0,1,24,25.82l.53-7.59L18.62,15.7c0,.12,0,.25-.05.37l-2.76,1.45-2.7-.64,0-.9L7.77,18.51c1.77,8.64.81,17.62-2.24,28.23l7.06,2,.06-3.55,6.29-.47c.06,1.15.11,2.28.14,3.39,3.55,1.37,3.68,1.35,6.91-.61A40.93,40.93,0,0,1,23.09,38.78Z" style="fill:#63ffd9"/><polygon points="32.15 32.57 28.53 31.3 22.75 24.23 24.51 18.23 32.55 30.04 32.15 32.57" style="fill:#63ffd9"/><path d="M20.81,38a1,1,0,0,0,1.21.8l3.07-.73-.45-2.06-3.07.73A1.06,1.06,0,0,0,20.81,38Z" style="fill:#e6e6e6"/><path d="M23.58,35.66,25.32,39c2.93-.86,5.46-3.57,7.9-6.75L32.55,30,28.4,31.16Z" style="fill:#63ffd9"/><polygon points="0.87 25.08 4.22 25.7 11.86 37.11 7.8 36.1 0.87 25.08" style="fill:#e6e6e6"/><path d="M.28,24.94a.28.28,0,0,0-.28.3.3.3,0,0,0,.05.16L7.19,36.77a.27.27,0,0,0,.17.13l3.32.82A.27.27,0,0,0,11,37.5a.29.29,0,0,0,0-.24L3.14,25.56A.29.29,0,0,0,3,25.43L.33,24.94Z" style="fill:#3f3d56"/><path d="M4.74,33.07l.19,2.1,3.14-.33A1,1,0,0,0,9,33.69a1,1,0,0,0-1.1-.95Z" style="fill:#e6e6e6"/><path d="M2,32.83a2.64,2.64,0,0,0,2.58,2.69h.52l.37-3.28-3.1-1.17Z" style="fill:#63ffd9"/><polygon points="20.26 10.37 20.16 10.27 20.31 10.12 21.19 9.03 21.3 9.13 20.41 10.21 20.26 10.37" style="fill:#fff"/></svg>