<svg id="_2cf41747-0c0c-4d70-aad4-093c093adad4" data-name=" 2cf41747-0c0c-4d70-aad4-093c093adad4" xmlns="http://www.w3.org/2000/svg" xmlns:xlink="http://www.w3.org/1999/xlink" viewBox="0 0 64.29 90.02"><defs><linearGradient id="linear-gradient" x1="87.4" y1="-21.13" x2="87.4" y2="57.15" gradientTransform="matrix(1, 0, 0, -1, -62.73, 62.37)" gradientUnits="userSpaceOnUse"><stop offset="0" stop-color="gray" stop-opacity="0.25"/><stop offset="0.54" stop-color="gray" stop-opacity="0.12"/><stop offset="1" stop-color="gray" stop-opacity="0.1"/></linearGradient></defs><path d="M12.84,5.53c3.09-2.59,8-3.11,12.37-2.91,13.89.65,26.42,6.94,37.26,14.06,3.92,2.58,7.79,5.36,10.34,8.91,5.19,7.22,3.64,17.23-3.57,23.19a37.36,37.36,0,0,1-8.48,4.95,55,55,0,0,1-17.45,5,61.49,61.49,0,0,1-13.21-.49c-12.2-1.55-24.18-5-34.23-10.87-4.4-2.58-8.55-5.78-10.37-10a9.25,9.25,0,0,1,3.85-11.93,21.83,21.83,0,0,1,6.26-1.91A43.75,43.75,0,0,0,5,21c3-1.34,6.53-3.92,5.93-6.89C10.26,10.91,9.75,8.12,12.84,5.53Z" style="fill:#ffff63;opacity:0.10000000149011612;isolation:isolate"/><ellipse cx="25.73" cy="81.05" rx="14.1" ry="4.15" style="fill:#ffff63;opacity:0.10000000149011612;isolation:isolate"/><polygon points="54.65 38.41 55.16 63.95 56.24 64.07 55.84 38.31 54.65 38.41" style="fill:#f5c5cc"/><polygon points="55.27 37.94 55.86 64.52 56.24 64.07 55.84 38.31 55.27 37.94" style="fill:none"/><polygon points="52.02 37.93 52.53 63.47 53.62 63.59 53.2 37.83 52.02 37.93" style="fill:#f5c5cc"/><polygon points="52.64 37.46 53.23 64.03 53.62 63.59 53.2 37.83 52.64 37.46" style="fill:none"/><polygon points="52.66 36.6 52.71 64.45 53.82 64.35 53.4 36.05 52.66 36.6" style="fill:#cc929b"/><polygon points="21.98 31.95 22.45 55.1 23.54 55.2 23.17 31.86 21.98 31.95" style="fill:#f5c5cc"/><polygon points="22.61 31.52 23.15 55.61 23.54 55.2 23.17 31.86 22.61 31.52" style="fill:#cc929b"/><polygon points="24.3 32.53 24.77 55.68 25.85 55.79 25.49 32.44 24.3 32.53" style="fill:#f5c5cc"/><polygon points="24.93 32.1 25.46 56.19 25.85 55.79 25.49 32.44 24.93 32.1" style="fill:#cc929b"/><polygon points="26.56 33.17 27.03 56.32 28.12 56.42 27.75 33.08 26.56 33.17" style="fill:#f5c5cc"/><polygon points="27.19 32.74 27.73 56.83 28.12 56.42 27.75 33.08 27.19 32.74" style="fill:#cc929b"/><polygon points="28.76 33.3 29.24 57.26 30.33 57.37 29.95 33.2 28.76 33.3" style="fill:#f5c5cc"/><polygon points="29.39 32.85 29.94 57.79 30.33 57.37 29.95 33.2 29.39 32.85" style="fill:#cc929b"/><polygon points="31.15 33.49 31.63 57.45 32.72 57.56 32.34 33.39 31.15 33.49" style="fill:#f5c5cc"/><polygon points="31.77 33.04 32.33 57.97 32.72 57.56 32.34 33.39 31.77 33.04" style="fill:#cc929b"/><polygon points="33.49 34.27 33.97 58.23 35.06 58.34 34.68 34.17 33.49 34.27" style="fill:#f5c5cc"/><polygon points="34.12 33.82 34.67 58.76 35.06 58.34 34.68 34.17 34.12 33.82" style="fill:#cc929b"/><polygon points="36.17 34.79 36.67 59.41 37.76 59.53 37.37 34.69 36.17 34.79" style="fill:#f5c5cc"/><polygon points="36.8 34.33 37.37 59.96 37.76 59.53 37.37 34.69 36.8 34.33" style="fill:#cc929b"/><polygon points="38.51 35.05 39.01 59.68 40.09 59.79 39.7 34.95 38.51 35.05" style="fill:#f5c5cc"/><polygon points="39.14 34.59 39.7 60.22 40.09 59.79 39.7 34.95 39.14 34.59" style="fill:#cc929b"/><polygon points="40.98 35.7 41.48 60.33 42.57 60.45 42.17 35.61 40.98 35.7" style="fill:#f5c5cc"/><polygon points="41.61 35.24 42.18 60.88 42.57 60.45 42.17 35.61 41.61 35.24" style="fill:#cc929b"/><polygon points="19.86 31.91 19.81 30.44 20.36 30.16 59.86 37.77 59.93 39.63 19.86 31.91" style="fill:#f5c5cc"/><polyline points="20.36 30.16 60.01 37.76 59.97 38.46 19.89 30.4" style="fill:#cc929b"/><polygon points="22 68.4 20.88 68.78 19.82 68.78 19.77 29.53 20.35 28.77 20.92 28.62 21.63 28.52 22 68.4" style="fill:#f5c5cc"/><polygon points="22 68.4 20.88 68.78 20.82 29.61 20.92 28.62 21.63 28.52 22 68.4" style="fill:#cc929b"/><polygon points="43.67 36.43 44.17 61.06 45.26 61.18 44.86 36.33 43.67 36.43" style="fill:#f5c5cc"/><polygon points="44.3 35.97 44.87 61.61 45.26 61.18 44.86 36.33 44.3 35.97" style="fill:#cc929b"/><polygon points="46.38 36.82 46.89 61.98 47.97 62.09 47.57 36.72 46.38 36.82" style="fill:#f5c5cc"/><polygon points="47.01 36.35 47.58 62.53 47.97 62.09 47.57 36.72 47.01 36.35" style="fill:none"/><polygon points="49.17 37.28 49.68 62.82 50.77 62.94 50.36 37.18 49.17 37.28" style="fill:#f5c5cc"/><polygon points="49.8 36.81 50.38 63.38 50.77 62.94 50.36 37.18 49.8 36.81" style="fill:#cc929b"/><polygon points="6.58 60.87 5.47 60.97 5.42 33.5 5.42 33.12 6.16 32.57 6.17 33.33 6.58 60.87" style="fill:#f5c5cc"/><polygon points="10.5 59.33 9.39 59.43 9.34 32.4 9.34 31.58 10.08 31.03 10.1 32.14 10.5 59.33" style="fill:#f5c5cc"/><polygon points="16.96 56.84 15.85 56.94 15.8 30.26 15.8 29.09 16.54 28.54 16.57 30.09 16.96 56.84" style="fill:#f5c5cc"/><polygon points="19.77 55.85 18.66 55.95 18.61 29.91 18.61 28.09 19.35 27.55 19.39 30.08 19.77 55.85" style="fill:#f5c5cc"/><polygon points="8.54 60.57 7.43 60.67 7.38 33.02 7.38 32.82 8.12 32.27 8.13 32.8 8.54 60.57" style="fill:#f5c5cc"/><polygon points="14.26 58.08 13.15 58.18 13.1 31.05 13.1 30.33 13.84 29.79 13.86 30.81 14.26 58.08" style="fill:#f5c5cc"/><polygon points="12.41 58.58 11.3 58.68 11.25 31.71 11.25 30.83 11.99 30.28 12 31.43 12.41 58.58" style="fill:#f5c5cc"/><path d="M5.4,56.28l-.27.52a4.19,4.19,0,0,0-.6,2.46,27,27,0,0,1-1.11,5.45,5.12,5.12,0,0,0,1.9.42,8.39,8.39,0,0,1,2.6.77L11.6,67,19,68.62S23.4,70.9,24.6,70.9a41.49,41.49,0,0,1,5.93,1.52s6.41,1.32,6.91,1.82a10,10,0,0,0,2.83,1.19l3.45.32s3.76.82,4.29,0a4.41,4.41,0,0,0,.61-1.59s1.66.35,2.11-.17.48-1.64,1-1.59,2.7.67,2.94.44,1.51-2.86,2.41-2.46,2.46,1,2.46,1l-.9-8.6-.4-2.36s-14.43,5.52-14.93,5.52S5.4,56.28,5.4,56.28Z" style="fill:#ffff63"/><path d="M58.17,48.75,58.1,60.88l-15,5.4-38-9.48S2.57,53.4,5,50.21c0,0-3.07-4,.74-6.56l.09,0L20.2,40.37l6.41,1.1,28.33,4.86S57.72,47.3,58.17,48.75Z" style="fill:#ffff63"/><path d="M26.11,42.63c-.72.35-5.91,1.61-6.94,2.39S11,46.38,11,46.38l-.8.15s.05-.49-3.1-1.94a4,4,0,0,1-1.31-1L20.2,40.37l6.41,1.1A1.16,1.16,0,0,1,26.11,42.63Z" style="opacity:0.10000000149011612;isolation:isolate"/><path d="M4.31,37.83S4.05,42.65,7.2,44.1,10.3,46,10.3,46l.8-.14S8.34,43,8.53,42.5s-2.47-3-2.84-3.1S4.31,37.83,4.31,37.83Z" style="fill:#ffff63"/><path d="M4.37,37.9s-.27,4.83,2.89,6.27,3.09,1.94,3.09,1.94l.8-.15s-2.76-2.88-2.57-3.38-2.47-3-2.83-3.11S4.37,37.9,4.37,37.9Z" style="opacity:0.10000000149011612;isolation:isolate"/><path d="M5.11,39.94s2.54,3.61,3,3.73S5.72,40,5.11,39.94Z" style="opacity:0.10000000149011612;isolation:isolate"/><path d="M4,37.16s1.64-1.25,1.85-1.49a10.12,10.12,0,0,1,2.62-.35A15.09,15.09,0,0,1,12.26,34c2-.32,2.78-.47,2.78-.47a23.36,23.36,0,0,0,3.07-1.39c.16-.25,1.51-.52,3.18.7s5.35,6.68,5.37,7.28.27,1.69-.45,2-5.9,1.62-6.93,2.39-8.19,1.37-8.19,1.37l-2.7-2.76L7,41,4.58,38.6Z" style="fill:#ffff63"/><path d="M8.37,58.63s-1,.2-.42.73S8.37,58.63,8.37,58.63Z" style="opacity:0.10000000149011612;isolation:isolate"/><path d="M11.83,59.7s-1.06,1.19-.84,1.52S11.83,59.7,11.83,59.7Z" style="opacity:0.10000000149011612;isolation:isolate"/><path d="M18.05,61.22S17,62.41,17.2,62.75,18.05,61.22,18.05,61.22Z" style="opacity:0.10000000149011612;isolation:isolate"/><path d="M25.6,63.21s-1.06,1.19-.84,1.52S25.6,63.21,25.6,63.21Z" style="opacity:0.10000000149011612;isolation:isolate"/><path d="M35.77,65.6s-1.06,1.19-.85,1.52S35.77,65.6,35.77,65.6Z" style="opacity:0.10000000149011612;isolation:isolate"/><path d="M14.87,60s-1.06,1.19-.85,1.52S14.87,60,14.87,60Z" style="opacity:0.10000000149011612;isolation:isolate"/><path d="M29.63,64.2s-1.06,1.2-.85,1.53S29.63,64.2,29.63,64.2Z" style="opacity:0.10000000149011612;isolation:isolate"/><path d="M32.73,65.13s-1.06,1.2-.84,1.53S32.73,65.13,32.73,65.13Z" style="opacity:0.10000000149011612;isolation:isolate"/><path d="M20.8,62s-1.06,1.19-.85,1.52S20.8,62,20.8,62Z" style="opacity:0.10000000149011612;isolation:isolate"/><path d="M47.49,69.24l1.12,4.87S48.62,70.7,47.49,69.24Z" style="opacity:0.10000000149011612;isolation:isolate"/><path d="M51,70l.79,2.38A7.59,7.59,0,0,0,51,70Z" style="opacity:0.10000000149011612;isolation:isolate"/><path d="M54.68,72.79s-1.68-5.73-2-6.13S53.67,72.43,54.68,72.79Z" style="opacity:0.10000000149011612;isolation:isolate"/><path d="M56.67,70.11s-2-3.25-1.2-3.85S56.67,70.11,56.67,70.11Z" style="opacity:0.10000000149011612;isolation:isolate"/><path d="M5,50.21,43.33,58.3l14.75-4-14.9,3.65S6.11,49.88,5,50.21Z" style="opacity:0.10000000149011612;isolation:isolate"/><polygon points="6.11 41.42 6.16 64.58 7.25 64.7 7.3 41.35 6.11 41.42" style="fill:#f5c5cc"/><polygon points="6.74 41 6.85 65.1 7.25 64.7 7.3 41.35 6.74 41" style="fill:#cc929b"/><polygon points="8.41 42.05 8.46 65.2 9.55 65.32 9.6 41.97 8.41 42.05" style="fill:#f5c5cc"/><polygon points="9.05 41.62 9.15 65.72 9.55 65.32 9.6 41.97 9.05 41.62" style="fill:#cc929b"/><polygon points="10.66 42.72 10.72 65.87 11.8 65.99 11.86 42.64 10.66 42.72" style="fill:#f5c5cc"/><polygon points="11.3 42.29 11.4 66.39 11.8 65.99 11.86 42.64 11.3 42.29" style="fill:#cc929b"/><polygon points="12.86 42.88 12.91 66.84 14 66.97 14.05 42.8 12.86 42.88" style="fill:#f5c5cc"/><polygon points="13.5 42.44 13.6 67.39 14 66.97 14.05 42.8 13.5 42.44" style="fill:#cc929b"/><polygon points="15.24 43.1 15.3 67.07 16.38 67.2 16.44 43.03 15.24 43.1" style="fill:#f5c5cc"/><polygon points="15.88 42.67 15.98 67.61 16.38 67.2 16.44 43.03 15.88 42.67" style="fill:#cc929b"/><polygon points="17.57 43.92 17.63 67.89 18.71 68.02 18.77 43.85 17.57 43.92" style="fill:#f5c5cc"/><polygon points="18.21 43.49 18.32 68.43 18.71 68.02 18.77 43.85 18.21 43.49" style="fill:#cc929b"/><polygon points="20.25 44.48 20.3 69.12 21.39 69.25 21.44 44.4 20.25 44.48" style="fill:none"/><polygon points="20.88 44.03 20.99 69.67 21.39 69.25 21.44 44.4 20.88 44.03" style="fill:#cc929b"/><polygon points="22.58 44.78 22.63 69.42 23.72 69.55 23.77 44.7 22.58 44.78" style="fill:#f5c5cc"/><polygon points="23.21 44.33 23.32 69.97 23.72 69.55 23.77 44.7 23.21 44.33" style="fill:#cc929b"/><polygon points="25.04 45.48 25.09 70.11 26.18 70.24 26.23 45.4 25.04 45.48" style="fill:#f5c5cc"/><polygon points="25.68 45.03 25.78 70.67 26.18 70.24 26.23 45.4 25.68 45.03" style="fill:#cc929b"/><polygon points="27.72 46.25 27.77 70.88 28.85 71.01 28.91 46.17 27.72 46.25" style="fill:#f5c5cc"/><polygon points="28.35 45.8 28.46 71.44 28.85 71.01 28.91 46.17 28.35 45.8" style="fill:#cc929b"/><polygon points="30.42 46.68 30.47 71.84 31.55 71.97 31.61 46.6 30.42 46.68" style="fill:#f5c5cc"/><polygon points="31.05 46.22 31.16 72.41 31.55 71.97 31.61 46.6 31.05 46.22" style="fill:#cc929b"/><polygon points="33.2 47.19 33.25 72.73 34.34 72.86 34.39 47.1 33.2 47.19" style="fill:#cc929b"/><polygon points="33.83 46.72 33.94 73.3 34.34 72.86 34.39 47.1 33.83 46.72" style="fill:none"/><polygon points="36.03 47.88 36.08 73.42 37.17 73.56 37.22 47.8 36.03 47.88" style="fill:#f5c5cc"/><polygon points="36.66 47.42 36.77 74 37.17 73.56 37.22 47.8 36.66 47.42" style="fill:#cc929b"/><polygon points="38.65 48.41 38.7 73.95 39.79 74.08 39.84 48.32 38.65 48.41" style="fill:#cc929b"/><polygon points="39.29 47.94 39.39 74.52 39.79 74.08 39.84 48.32 39.29 47.94" style="fill:none"/><polygon points="4.68 69.08 3.57 69.47 2.51 69.47 2.46 32.97 3.04 32.17 3.6 32.01 4.41 31.77 4.68 69.08" style="fill:#f5c5cc"/><polygon points="4.68 69.08 3.57 69.47 3.5 33.05 3.6 32.01 4.41 31.77 4.68 69.08" style="fill:#cc929b"/><ellipse cx="3.67" cy="69.42" rx="1.27" ry="1.19" style="fill:#40414d"/><polygon points="61.55 74.66 60.44 75.04 59.38 75.04 59.33 34.9 59.91 35.04 60.48 34.88 61.29 34.66 61.55 74.66" style="fill:#f5c5cc"/><polygon points="61.55 74.66 60.44 75.04 60.37 35.88 60.48 34.88 61.29 34.66 61.55 74.66" style="fill:#cc929b"/><polygon points="46.15 67.14 45.03 67.23 44.98 40.42 44.98 39.38 45.72 38.84 45.74 40.27 46.15 67.14" style="fill:#f5c5cc"/><polygon points="50.06 65.59 48.95 65.69 48.9 39.37 48.9 37.84 49.64 37.3 49.67 39.11 50.06 65.59" style="fill:#f5c5cc"/><polygon points="56.52 63.11 55.41 63.21 55.36 36.95 55.36 35.36 56.1 34.81 56.13 36.65 56.52 63.11" style="fill:#f5c5cc"/><polygon points="58.17 34.36 58.22 62.21 59.33 62.11 58.91 33.81 58.17 34.36" style="fill:#f5c5cc"/><polygon points="48.1 66.84 46.99 66.94 46.94 39.97 46.94 39.09 47.68 38.54 47.7 39.75 48.1 66.84" style="fill:#f5c5cc"/><polygon points="51.97 64.85 50.86 64.95 50.81 38.7 50.8 37.1 51.55 36.55 51.57 38.41 51.97 64.85" style="fill:#f5c5cc"/><polygon points="54.12 64.19 53.01 64.28 52.96 38.03 52.96 37.88 52.96 36.43 53.7 35.89 53.73 37.58 53.73 37.74 54.12 64.19" style="fill:#f5c5cc"/><polygon points="43.92 66.95 59.28 60.82 60.34 61.05 60.37 63.34 44.2 69.21 43.92 66.95" style="fill:#f5c5cc"/><polyline points="59.28 60.82 43.92 66.95 60.28 61.04" style="fill:#cc929b"/><polygon points="4.13 63.7 42.86 74.75 42.79 76.54 3.99 65.3 4.13 63.7" style="fill:#f5c5cc"/><path d="M44.56,81l-1.12.4H42.38l-.05-40.88h0v-.2l.08-.11.5-.69.57-.16.81-.23v1.39Z" style="fill:#f5c5cc"/><polygon points="44.56 81.01 43.44 81.41 43.38 40.41 43.48 39.37 44.29 39.14 44.56 81.01" style="fill:#cc929b"/><path d="M44.29,39.14v1.39c-.31,0-.62.07-.92.08a3,3,0,0,1-1.05-.08h0s0-.13.08-.31l.5-.68.57-.17Z" style="opacity:0.10000000149011612;isolation:isolate"/><path d="M45.72,38.84l0,1.43-.76.15v-1Z" style="opacity:0.10000000149011612;isolation:isolate"/><path d="M47.68,38.54l0,1.21-.76.22v-.88Z" style="opacity:0.10000000149011612;isolation:isolate"/><path d="M49.64,37.3l0,1.81-.77.26V37.84Z" style="opacity:0.10000000149011612;isolation:isolate"/><path d="M51.55,36.55l0,1.86-.61.23-.15.06V37.1Z" style="opacity:0.10000000149011612;isolation:isolate"/><path d="M56.13,36.65l-.77.3V35.36l.74-.55Z" style="opacity:0.10000000149011612;isolation:isolate"/><path d="M53.73,37.58l-.77.3V36.44l.74-.55Z" style="opacity:0.10000000149011612;isolation:isolate"/><path d="M61.93,35.55a18.37,18.37,0,0,1-2.49-.14c-.53-.15-1.64.44-8.48,3-4.13,1.56-6.42,1.93-7.58,2a3,3,0,0,1-1.05-.08s1.4-6,5.84-7.13c.49-.13,1-.28,1.46-.46l.08,0a11.59,11.59,0,0,1,1.15-.33,17.27,17.27,0,0,1,5-.91,7.28,7.28,0,0,1,4.42,1.38A3.39,3.39,0,0,1,61.93,35.55Z" style="fill:#cc929b"/><path d="M49.9,32.67c-5.49,2.23-6.33,6.39-6.52,7.74a3,3,0,0,1-1.05-.08s1.4-6,5.84-7.13c.49-.13,1-.28,1.46-.46l.08,0A1.08,1.08,0,0,0,49.9,32.67Z" style="fill:#f5c5cc"/><path d="M6.16,32.57v.76c-.26.07-.51.12-.75.17v-.38Z" style="opacity:0.10000000149011612;isolation:isolate"/><path d="M8.12,32.27v.53L7.38,33v-.2Z" style="opacity:0.10000000149011612;isolation:isolate"/><path d="M10.08,31l0,1.11-.76.26v-.82Z" style="opacity:0.10000000149011612;isolation:isolate"/><path d="M12,30.28v1.15l-.75.28v-.88Z" style="opacity:0.10000000149011612;isolation:isolate"/><path d="M13.84,29.79l0,1-.76.24v-.72Z" style="opacity:0.10000000149011612;isolation:isolate"/><path d="M16.54,28.54l0,1.55-.76.17V29.09Z" style="opacity:0.10000000149011612;isolation:isolate"/><path d="M19.39,30.07a2.92,2.92,0,0,0-.78-.16V28.09l.74-.55Z" style="opacity:0.10000000149011612;isolation:isolate"/><path d="M22.05,30.08a17.16,17.16,0,0,1-2.49-.15c-.53-.14-1.64-.94-8.47,1.65a26,26,0,0,1-7.59,2,3.4,3.4,0,0,1-1-.08s1.06-5.23,5.69-6.11a6.63,6.63,0,0,0,.77-.18c.29-.09.73-.21,1.34-.34a29.37,29.37,0,0,1,7.57-.55A4.79,4.79,0,0,1,21,27.59,3.29,3.29,0,0,1,22.05,30.08Z" style="fill:#cc929b"/><path d="M10.25,26.84c-5.5,2.22-6.56,5.35-6.75,6.71a3.4,3.4,0,0,1-1-.08s1.06-5.23,5.69-6.11a6.63,6.63,0,0,0,.77-.18C9.2,27.09,9.64,27,10.25,26.84Z" style="fill:#f5c5cc"/><polygon points="3.99 41.35 3.96 39.88 4.52 39.61 42.54 47.62 42.44 49.48 3.99 41.35" style="fill:#f5c5cc"/><polyline points="4.52 39.61 42.54 47.62 42.49 48.31 4.05 39.84" style="fill:#cc929b"/><ellipse cx="60.44" cy="75.04" rx="1.27" ry="1.19" style="fill:#40414d"/><ellipse cx="43.6" cy="81.81" rx="1.27" ry="1.19" style="fill:#40414d"/><path d="M5.44,57.27A7.76,7.76,0,0,0,4,59.53c-.36,1.06.42,5,.42,5a7.25,7.25,0,0,0,.85-2.13A37.76,37.76,0,0,0,5.44,57.27Z" style="fill:#ffff63"/><path d="M59.07,67.19s.68,3.28.74,3.78-1.75-.25-1.75-.25Z" style="fill:#ffff63"/><path d="M38.2,26.57h0a.12.12,0,0,0,0-.09.45.45,0,0,0-.17-.13l-.5-.26.43.15-.07-.09.05,0,0,0-.05,0a1.31,1.31,0,0,0-1-.35H37a1.08,1.08,0,0,0-.31,0h-.24a.27.27,0,0,1-.13-.17,1.66,1.66,0,0,1,.06-.62.72.72,0,0,0,0-.29v-.06a.33.33,0,0,0-.22-.18v0h0V25a2.19,2.19,0,0,1-.44-.42.36.36,0,0,1,0-.09c0-.09.11-.15.12-.24a.13.13,0,0,0-.11-.13h0a.16.16,0,0,0-.12,0l-.26.07h0c-.26.06-.5-.14-.69-.32l0,0c-.09-.75-.24-1.61-.24-1.61a9.7,9.7,0,0,0-.32-1.51c-.19-.52-.45-1.46-.45-1.46a7.73,7.73,0,0,0-.74-1.18L32.6,18a1.78,1.78,0,0,1-.11-.52c0-1,1.09-1.69,1.26-2.67.14-.79-.39-1.59-.32-2.4a9.77,9.77,0,0,1,.27-1,2.5,2.5,0,0,0,0-1,1.38,1.38,0,0,0-.17-.52,3,3,0,0,0,.38-.61,1.61,1.61,0,0,0-.28-1.39A6,6,0,0,0,29.42,5.3c-.65,0-1.31-.06-2-.07a5.61,5.61,0,0,0-2.24.25c-1.39.55-2.05,2-2.89,3.18a9.4,9.4,0,0,1-2.63,2.47c-.49.3-1.06.63-1.17,1.17a1,1,0,0,0,0,.16,1,1,0,0,1,0-.14c-.11.56.31,1.09.53,1.63a2.74,2.74,0,0,1,.2.89,3.08,3.08,0,0,0,0-.43,7.86,7.86,0,0,1-.42,3.19c0,.08,0,.16-.05.24a2.28,2.28,0,0,0-.56.23,3.19,3.19,0,0,1-1.25.46,2.33,2.33,0,0,0-1.5.85.45.45,0,0,1-.19.15,27.63,27.63,0,0,0-1.57,3.92s-.28,1.6-.28,2-.48,3.09-.48,3.09a1.84,1.84,0,0,0-.1.7,2.94,2.94,0,0,1-.11.81L12.6,30c-.08-.15-1.54,0-1.09,1a2,2,0,0,0,.52.72,5,5,0,0,0-.36,1s0,.36,0,.8l-.57.38c0,.55.37.64.74.62a.91.91,0,0,0,.43.64c.67.22,1.09.12,1.3.29a7.53,7.53,0,0,0,1.35.51,14.14,14.14,0,0,0,1.46.13l.19.09,0-.1c.06,0,0-.08-.05-.2s-.08-.35-.13-.57l.3-.1.08.11-.18.86s-.53,1.79-.29,2.07a.53.53,0,0,1,0,.62s-.05.46.08.46.29.57.16.6-.74.5-.53.6,0,.33,0,.56.32.41.5.53c0,.1-.07.22-.1.33a2.77,2.77,0,0,0-.14.77c.06.28-.13,1-.08,1.31s.24.8.11,1,0,1,0,1l.24,2.13s-.16.61,0,.76.29,1.91.45,2.11a2.45,2.45,0,0,1,.21,1.61c-.19.35.24,1.08.24,1.08s0,.85,0,1.08a1.42,1.42,0,0,0,.24.57,10.69,10.69,0,0,1,.21,1.51,1.85,1.85,0,0,0,.16.73,7.22,7.22,0,0,1,.13,1.08c0,.2.22.48.22.48a2.11,2.11,0,0,1,.21.93.65.65,0,0,0,.18.55s0,.6,0,.68a5.08,5.08,0,0,0,.56.68s-.24.45-.11.63.11.8.32,1,.16,1,.42,1.18.5.28.56.61.26.8.5.88a.32.32,0,0,1,.12.11l-.11.42-.32,1.28s-.32,1.85-.3,2.13-.31.55-.31.55-.3,1.61-.35,1.81a1.76,1.76,0,0,0,0,.58s-.19,1-.06,1a5.17,5.17,0,0,1,.69.58h.05l-.06.18L19.5,78s-.84,1.33,1.12,2c.07.12.13.12.06.1s1.37,1.09,1.48,1.58,1,1,1.33,1.06,2.44,1.65,3.21.07-1.35-2.61-1.35-2.61l-1.62-1s-.82-1.13-.95-1.33-.38-1.18-.22-1.33a8.72,8.72,0,0,0,.57-1.42,1.07,1.07,0,0,1,.07-.19,1.91,1.91,0,0,0,1-.1l1.18-1.75.21-.31,0,.07s1,.08,1.46.15a1.38,1.38,0,0,0,.45,0,.54.54,0,0,1,.05.11,5.5,5.5,0,0,1,.3.72c.08.33.16,1.48.16,1.48s-.53,1.66-.67,2S27.48,80,30.11,79c0,0,.31-.47.61-.47a1.14,1.14,0,0,0,.74-1.41c-.27-.73-1.38-3-.61-4.15a2.07,2.07,0,0,0-.27-2.82l-.1-.06a2.41,2.41,0,0,0,0-.38c-.19-2.42-1.38-2.54-1.38-2.54s-.69-.15-.77-.4a12.42,12.42,0,0,0-1.14-1.51l0-.07s0,0,0,0a.54.54,0,0,0,.07-.13,4.77,4.77,0,0,0,.27-2.21c0-.27,0-.62,0-1s.42-1,.37-1.23.5-1.15.5-1.38a15.81,15.81,0,0,1,.4-1.59s.77-1.55.93-2l3.09-9s0,0,0,0,.87-2.67.29-4.42a2,2,0,0,0-.14-.34l.3-.14s-.34-.95-.18-1.31a2.34,2.34,0,0,0,.05-1s-.64-.35-.66-.5-.29-.35-.21-.55.53-.1.47-.55-.61-.93-.55-1.21.26-.78,0-1.08a2,2,0,0,1-.4-1.16,6,6,0,0,1,.05-.78,9.17,9.17,0,0,0,.88.46A4.65,4.65,0,0,0,34,34a2.38,2.38,0,0,1,.35-.36c1.43-.32.79-2.78.79-2.78s0-.18,0-.48l.1,0c.12-.09.15-.24.22-.37a1.83,1.83,0,0,1,.3-.32,3.29,3.29,0,0,0,.57-.95c.09-.22.19-.43.29-.65a1.52,1.52,0,0,1,.42-.63,1.64,1.64,0,0,1,.88-.24,1,1,0,0,0-.25-.61.65.65,0,0,1,.56.08v0h0A.29.29,0,0,0,38.2,26.57ZM15.52,33.45l0-.15.18-.14.37,0-.23.18A.36.36,0,0,0,15.52,33.45Zm.74-.69a.41.41,0,0,0,.16,0h.32c-.18.12-.36.25-.51.37l0-.33Zm.61-5.07s0,.72,0,1.43l-.25.18.19-1.66Z" style="fill:url(#linear-gradient)"/><path d="M30.71,78.45c-.29,0-.61.47-.61.47-2.62,1-2.89-1.49-2.76-1.79s.67-1.94.67-1.94-.08-1.14-.16-1.46a5,5,0,0,0-.3-.72c-.17-.38-.36-.75-.36-.75s1.13-2.64,2.64-2.39a1.82,1.82,0,0,1,.75.3A2.05,2.05,0,0,1,30.84,73c-.77,1.17.34,3.39.61,4.11A1.13,1.13,0,0,1,30.71,78.45Z" style="fill:#fdc2cc"/><path d="M26.71,82.65c-.77,1.57-2.89,0-3.2-.07s-1.22-.55-1.33-1S20.77,80,20.7,80s0,0-.06-.1c-2-.67-1.11-2-1.11-2l.91-3L20.7,74l2.86-.18s-.2.59-.42,1.21a9.59,9.59,0,0,1-.56,1.4c-.16.15.08,1.12.21,1.32s.95,1.32.95,1.32l1.62,1S27.48,81.09,26.71,82.65Z" style="fill:#fdc2cc"/><path d="M23.56,73.85s-.2.59-.42,1.21a.8.8,0,0,1-.38-.24l-2.3.05h0L20.7,74Z" style="opacity:0.10000000149011612;isolation:isolate"/><path d="M32.88,46.82v0c-.23.63-2.94,8.46-3.09,8.89s-.93,2-.93,2a16,16,0,0,0-.39,1.56c0,.23-.56,1.15-.51,1.37s-.37.82-.37,1.22,0,.75,0,1a4.8,4.8,0,0,1-.26,2.19,1.59,1.59,0,0,1-.37.49l-.13.1c-1,.6-1,6.72-1,6.72l0,.06-.39.57-1.18,1.73s-1,.38-1.41-.15l-2.3,0a6,6,0,0,0-.69-.57c-.13,0,.05-1,.05-1a1.81,1.81,0,0,1,0-.57c.05-.2.34-1.8.34-1.8s.35-.27.32-.54.29-2.12.29-2.12l.33-1.26.16-.62.33-1.3,2.25-18.67,2.86-.82,5.51.25.6,1Z" style="fill:#5f5d7e"/><path d="M25.12,56A11.37,11.37,0,0,0,25,57.61a13.67,13.67,0,0,1,.16,2.31c-.08.3.29.65.43.8s0,.6.08,1a1.24,1.24,0,0,0,.37.67s-.4.79-.11.92.9,1.26.9,1.26l.48.57a1.46,1.46,0,0,1-.5.6c-1,.6-1,6.72-1,6.72l0,.06-.59-1.11s-3.52-5-3.76-5.07a.4.4,0,0,1-.15-.1l.33-1.29,2.25-18.68,2.86-.82,5.51.25-2.9.27s-1.29.87-1.3.9l-2.31.92-.43,6S25.15,55.52,25.12,56Z" style="opacity:0.10000000149011612;isolation:isolate"/><path d="M32.79,46.68c-.07.27-7.7-.56-7.7-.56L25.15,48l-.43,6s-.1,1.81-.13,2.28a10.2,10.2,0,0,0-.1,1.62,14.64,14.64,0,0,1,.15,2.31c-.08.3.3.65.43.8s.05.6.08.94a1.24,1.24,0,0,0,.37.68s-.4.79-.11.92.9,1.26.9,1.26l.64.77-.14.1c-.95.6-1,6.72-1,6.72l-.05.06-.38.57-.73-1.38s-2.72-3.85-3.54-4.84l.16-.62.33-1.3,2.25-18.67,2.86-.82,5.51.25Z" style="opacity:0.10000000149011612;isolation:isolate"/><path d="M30.58,70.17c-.11,1.78-2.11,2.65-3,2.84-.17-.38-.36-.75-.36-.75s1.13-2.64,2.64-2.39A1.7,1.7,0,0,1,30.58,70.17Z" style="opacity:0.10000000149011612;isolation:isolate"/><path d="M24.8,56a11.31,11.31,0,0,0-.1,1.61,14.8,14.8,0,0,1,.16,2.31c-.08.3.29.65.42.8s0,.6.08,1a1.31,1.31,0,0,0,.37.67s-.4.79-.11.92.9,1.26.9,1.26a28.34,28.34,0,0,1,1.8,2.29c.08.25.77.4.77.4s1.19.12,1.38,2.51S27.53,73,27.05,73s-1.45-.14-1.45-.14l-.77-1.45s-3.52-5-3.76-5.07-.45-.55-.5-.87-.3-.45-.56-.6-.21-1-.42-1.17-.19-.82-.32-1,.1-.62.1-.62a5.64,5.64,0,0,1-.55-.67c0-.08,0-.67,0-.67s-.27-.28-.19-.55a2.06,2.06,0,0,0-.21-.92s-.24-.28-.21-.47a8.33,8.33,0,0,0-.14-1.07,2,2,0,0,1-.16-.72,10.51,10.51,0,0,0-.21-1.5,1.35,1.35,0,0,1-.24-.57c0-.22,0-1.07,0-1.07s-.42-.72-.24-1.07a2.4,2.4,0,0,0-.21-1.59c-.16-.2-.29-1.94-.45-2.09s0-.74,0-.74l-.24-2.12s-.16-.74,0-1-.06-.77-.11-1,.13-1,.08-1.29a2.72,2.72,0,0,1,.14-.76c.12-.45.28-.93.28-.93s13.61-1.19,15.57,0a2.07,2.07,0,0,1,.85,1.14c.58,1.74-.29,4.38-.29,4.38l-7.52.92-.42,6S24.83,55.52,24.8,56Z" style="fill:#5f5d7e"/><path d="M22.63,64.85s2.36-.67,2.91-.23S22.63,64.85,22.63,64.85Z" style="opacity:0.10000000149011612;isolation:isolate"/><path d="M23.48,67.68a2,2,0,0,1,1.77-.49A3.12,3.12,0,0,0,27.11,67Z" style="opacity:0.10000000149011612;isolation:isolate"/><path d="M26,68.5s1.93-.25,2,0S26,68.5,26,68.5Z" style="opacity:0.10000000149011612;isolation:isolate"/><path d="M25.41,70s2.15-.6,2.25-.35-2.35.33-2.35.33Z" style="opacity:0.10000000149011612;isolation:isolate"/><path d="M27.82,56.57s-2,1.66-1.72,1.84S27.82,56.57,27.82,56.57Z" style="opacity:0.10000000149011612;isolation:isolate"/><path d="M26.18,60.7s1.4,0,1.14.29S26.18,60.7,26.18,60.7Z" style="opacity:0.10000000149011612;isolation:isolate"/><path d="M27,61.86s-.56.45-.43.55S27,61.86,27,61.86Z" style="opacity:0.10000000149011612;isolation:isolate"/><path d="M20.91,72.53s1.75.55,1.77.9S20.91,72.53,20.91,72.53Z" style="opacity:0.10000000149011612;isolation:isolate"/><path d="M29.38,20.53l-.55,3.11S24,26,23.93,26s-3.52-.55-3.66-.55-2.38-6.39-.79-6.79A10.39,10.39,0,0,0,21.22,18c1.83-.87,4.09-2.18,4.09-2.18s3.36-.34,2.54,1.85A1.94,1.94,0,0,0,28,19.6,2.85,2.85,0,0,0,29.38,20.53Z" style="fill:#fdc2cc"/><path d="M29.38,20.53l-.55,3.11S24,26,23.93,26s-3.52-.55-3.66-.55-2.38-6.39-.79-6.79A10.39,10.39,0,0,0,21.22,18c.43,0,.72.06.72.06a46.18,46.18,0,0,1,1.14,5c.08,1.17,2.83,1.29,3,1.24a18.94,18.94,0,0,0,.95-2.91s-.08-1,.16-1,.66-.6.8-.79A2.85,2.85,0,0,0,29.38,20.53Z" style="opacity:0.10000000149011612;isolation:isolate"/><path d="M33.17,42.44a4.65,4.65,0,0,1-1.49.5,6.44,6.44,0,0,0-1-.07,1.11,1.11,0,0,1-.88.34,18.69,18.69,0,0,0-2.22,0,26.44,26.44,0,0,1-3.79-.07A22.09,22.09,0,0,0,21,42.74a33.17,33.17,0,0,1-3.47-.52.9.9,0,0,0-.87.1l-.21-.14c.13-.45.29-.93.29-.93s13.61-1.19,15.57,0A2.12,2.12,0,0,1,33.17,42.44Z" style="opacity:0.10000000149011612;isolation:isolate"/><path d="M21.94,18.27s-2.67-.35-3.73.33a3.41,3.41,0,0,1-1.25.45,2.35,2.35,0,0,0-1.5.84.4.4,0,0,1-.19.15,27.12,27.12,0,0,0-1.56,3.88l3.2,4.2s-.08,2.34.37,2.78-.63,5.57-.63,5.57-.53,1.77-.29,2a.56.56,0,0,1,0,.63s-.06.44.08.44.29.58.15.6-.74.5-.53.6,0,.32,0,.54.61.6.61.6a.92.92,0,0,1,.88-.1,32.78,32.78,0,0,0,3.47.52,22.09,22.09,0,0,1,2.78.38,24.91,24.91,0,0,0,3.78.07,17.26,17.26,0,0,1,2.23,0,1.08,1.08,0,0,0,.87-.35,6.55,6.55,0,0,1,1,.07A5.85,5.85,0,0,0,33.33,42S33,41,33.14,40.68a2.36,2.36,0,0,0,.06-1s-.64-.35-.67-.5-.29-.35-.21-.55.53-.1.48-.54-.61-.92-.56-1.2.27-.77,0-1.07a2,2,0,0,1-.39-1.14c0-.37.39-3.76.39-3.76l-1-6.81,3-1.39a10.77,10.77,0,0,0-.32-1.49c-.19-.53-.45-1.45-.45-1.45a7.16,7.16,0,0,0-.74-1.16c-.14-.05-1.54-.92-1.86-.8s-2.83,1.94-2.83,1.94-.61.84-.85.84-.16,1-.16,1a18.94,18.94,0,0,1-.95,2.91c-.19.05-2.94-.08-3-1.24A46.18,46.18,0,0,0,21.94,18.27Z" style="fill:#d39999"/><path d="M17.79,33a6,6,0,0,1-1.12.13c-.54,0-1-.05-1.13-.23a3.32,3.32,0,0,1-.32-1.44s1.43.31,2.43.65l.16.06h0a1.66,1.66,0,0,1,.74.4C18.64,32.71,18.29,32.87,17.79,33Z" style="fill:#fdc2cc"/><ellipse cx="28.19" cy="14.59" rx="4.85" ry="4.55" style="opacity:0.10000000149011612;isolation:isolate"/><ellipse cx="28.19" cy="14.39" rx="4.85" ry="4.55" style="fill:#fdc2cc"/><path d="M17.47,39a12.3,12.3,0,0,1,1.9.13,11.52,11.52,0,0,0,1.65.14A29.1,29.1,0,0,1,17.47,39Z" style="opacity:0.10000000149011612;isolation:isolate"/><path d="M17.52,39.76s1.78.12,1.8.37S17.52,39.76,17.52,39.76Z" style="opacity:0.10000000149011612;isolation:isolate"/><path d="M31,36.7s1.08.37,1,.5S31.13,37,31,36.7Z" style="opacity:0.10000000149011612;isolation:isolate"/><path d="M14.4,23.47l-.69.45s-.29,1.59-.29,2-.48,3.06-.48,3.06a2,2,0,0,0-.11.7,5.34,5.34,0,0,1-.21,1.21,20.34,20.34,0,0,0-.9,2.19c.06.13,4.53.53,4.53.53L16.89,28Z" style="fill:#d39999"/><path d="M12.38,32.37l-.66.67s0,2.19.64,2.42,1.08.12,1.3.29a7.09,7.09,0,0,0,1.35.5,10.63,10.63,0,0,0,1.61.13c.37-.05-2.17-2-.5-3.59Z" style="fill:#d39999"/><path d="M33.33,21.73l.93,1a17.25,17.25,0,0,1,.29,2.63c-.11.33.55,6,.55,6s.64,2.43-.79,2.76a2.32,2.32,0,0,0-.35.35,4.65,4.65,0,0,1-1.19,0L31,23.57Z" style="fill:#d39999"/><path d="M20.73,30.63a35.42,35.42,0,0,1,4.1-2c.63-.1,4.58-1.86,4.58-1.86s2,.94,2.14,1.66S30.73,32,30.73,32s-3.23,2.11-3.41,2.56-3,1.77-3,2S20,39.21,18,37.07s-1.9-2.76-1.9-2.76L21,33.24l.47-2Z" style="opacity:0.10000000149011612;isolation:isolate"/><path d="M20.73,30.43a35.42,35.42,0,0,1,4.1-2c.63-.1,4.58-1.86,4.58-1.86s2,.94,2.14,1.66-.82,3.61-.82,3.61-3.23,2.11-3.41,2.56-3,1.77-3,2S20,39,18,36.87s-1.9-2.76-1.9-2.76L21,33l.47-2Z" style="fill:#c4c8e2"/><path d="M15.38,31.3l-.16,1.25L14,32.46l-1.23-.09s-.72,0-1.17-1,1-1.14,1.09-1a15.11,15.11,0,0,0,2.33.81Z" style="fill:#fdc2cc"/><path d="M15.38,31.3l-.16,1.25L14,32.46c.2-.29.63-.81,1-1.27Z" style="opacity:0.10000000149011612;isolation:isolate"/><path d="M15.22,31.43s1.43.31,2.43.65a3.92,3.92,0,0,1-1,1c-.54,0-1-.05-1.13-.23A3.32,3.32,0,0,1,15.22,31.43Z" style="opacity:0.10000000149011612;isolation:isolate"/><path d="M17.79,33l0-.17a.66.66,0,0,1,0-.09.57.57,0,0,1,.05-.42c.06-.07,0-.12,0-.15a1.56,1.56,0,0,1,.74.41C18.64,32.71,18.29,32.87,17.79,33Z" style="opacity:0.10000000149011612;isolation:isolate"/><path d="M22.29,32.16a12.62,12.62,0,0,0-1.53,1.64c-.09.29-2.81.3-2.81.3l-.18-1.39,0-.09a.59.59,0,0,1,.05-.43c.14-.17-.15-.22-.15-.22s-.73,1.14-1.35,1.17c0,0-.85.58-.84.7a1.24,1.24,0,0,0-.43.78c0,.43-.54.61-.92.48a6.45,6.45,0,0,0-1.66-.34c-.31,0-1.29.31-1.26-.54,0,0,1.27-.9,1.59-.87a1.69,1.69,0,0,0,1.17-.6c.1-.27,1.9-2.36,1.9-2.36a6.86,6.86,0,0,1,1.6-1.11s.92-.68,2.3.34a19.45,19.45,0,0,1,2,1.26c.05.12.61.62.65,1A.3.3,0,0,1,22.29,32.16Z" style="fill:#fdc2cc"/><path d="M17.79,30.18a3.88,3.88,0,0,1,.08,1c-.07.27-.22.75-.22.75S18.51,30.71,17.79,30.18Z" style="opacity:0.10000000149011612;isolation:isolate"/><path d="M17.86,32s.44-.46.53-.34S17.86,32,17.86,32Z" style="opacity:0.10000000149011612;isolation:isolate"/><path d="M35.94,27.39a3,3,0,0,1-2.25,2.8,3.34,3.34,0,0,1-.84.11h0a3,3,0,0,1-3.1-2.91h0a2.94,2.94,0,0,1,.05-.51,3,3,0,0,1,2.82-2.39h.23A3,3,0,0,1,35.94,27.39Z" style="fill:#f8bdc5"/><path d="M37.57,27a1,1,0,0,1,.25.6,1.67,1.67,0,0,0-.88.25,1.49,1.49,0,0,0-.42.62c-.1.21-.19.43-.29.64a3,3,0,0,1-.57.94,1.47,1.47,0,0,0-.29.32c-.07.12-.11.28-.22.36a.44.44,0,0,1-.4,0c-.14,0-.25-.12-.38-.17a1.22,1.22,0,0,0-.26-.06h0A3.3,3.3,0,0,1,33,30.38l-.1-.08a1,1,0,0,1-.27-.43.51.51,0,0,1,0-.21.44.44,0,0,1,.25-.3l0,0c.32-.15.76-.19.93-.49s0-.64-.28-.88-.25-.23-.23-.38.14-.23.25-.32a1.77,1.77,0,0,0,.58-1,.82.82,0,0,0,0-.35.92.92,0,0,0-.13-.24l-.35-.47a1.33,1.33,0,0,0-.42-.43c-.14-.08-.31-.1-.45-.18a.41.41,0,0,1-.14-.12.16.16,0,0,1,0-.1c0-.08.1-.12.19-.14a2.08,2.08,0,0,1,.7-.06h.23a.15.15,0,0,0,.12-.16c.26-.07.5.12.69.3a.87.87,0,0,0,.7.33,2.29,2.29,0,0,1,.28-.08c.1,0,.22.05.21.14s-.13.15-.12.24a.2.2,0,0,0,0,.09,2.15,2.15,0,0,0,.43.42v-.53a.43.43,0,0,1,.26.51,1.8,1.8,0,0,0-.05.61.22.22,0,0,0,.12.16.25.25,0,0,0,.17,0,1.33,1.33,0,0,1,1.3.46l-.43-.14.49.25a.57.57,0,0,1,.18.12.17.17,0,0,1,0,.2A.65.65,0,0,0,37.57,27Z" style="fill:#585268"/><g style="opacity:0.10000000149011612"><path d="M36.64,26.2a.48.48,0,0,0,.17,0H37a1.15,1.15,0,0,0-.32,0Z"/><path d="M37.67,26.52l.18.09,0,0Z"/><path d="M36.31,25.44v-.35a.37.37,0,0,0-.22-.18v.35A1.24,1.24,0,0,0,36.31,25.44Z"/><path d="M37.88,27a.67.67,0,0,1,.26.1.11.11,0,0,0,0-.08A.93.93,0,0,0,37.88,27Z"/><path d="M35,30.77l-.38-.17-.26-.07h0a2.84,2.84,0,0,1-1.14-.17l-.11-.08a1,1,0,0,1-.27-.43.39.39,0,0,1,.22-.5l.06,0c.32-.16.76-.2.92-.5a.76.76,0,0,0-.28-.87c-.11-.11-.25-.24-.23-.39s.14-.23.25-.32a1.72,1.72,0,0,0,.58-1,.6.6,0,0,0,0-.35.76.76,0,0,0-.13-.23l-.34-.48a1.33,1.33,0,0,0-.43-.42c-.14-.08-.3-.11-.45-.19a.37.37,0,0,1-.13-.12.1.1,0,0,1,0-.09c0-.08.11-.12.2-.14a1.94,1.94,0,0,1,.42-.07,2,2,0,0,0-.64.07c-.08,0-.17.06-.19.14a.1.1,0,0,0,0,.09.3.3,0,0,0,.13.12c.14.08.31.11.45.19a1.3,1.3,0,0,1,.42.42l.35.48a1,1,0,0,1,.13.23.7.7,0,0,1,0,.35,1.77,1.77,0,0,1-.58,1c-.11.09-.24.19-.25.32s.12.28.23.39.44.58.28.87-.6.34-.92.5l-.06,0a.39.39,0,0,0-.22.5,1,1,0,0,0,.27.43l.11.08a2.84,2.84,0,0,0,1.14.17h0l.26.07.38.17a.61.61,0,0,0,.3,0Z"/><path d="M35.46,24.63l.19-.05a.17.17,0,0,0-.12,0l-.27.07A.34.34,0,0,0,35.46,24.63Z"/><path d="M33.72,24.17H34a.17.17,0,0,0,.12-.16.41.41,0,0,0-.22,0,.15.15,0,0,1-.11.16h0Z"/></g><path d="M30.05,25.79a3.37,3.37,0,0,1-1.61.44,7.72,7.72,0,0,1-1.36,0l-1-.36s.08-.15.22-.36c.28-.4.79-1,1.32-1l1.7.07C29.38,24.6,30.93,25.17,30.05,25.79Z" style="fill:#fdc2cc"/><path d="M27.47,5.88a5.73,5.73,0,0,0-2.23.26c-1.39.54-2,2-2.89,3.14a9,9,0,0,1-2.62,2.44c-.48.3-1.05.63-1.17,1.16s.31,1.1.53,1.64c.47,1.14,0,2.41-.28,3.61a11.53,11.53,0,0,0-.25,1.75,2.21,2.21,0,0,0,.06.81c.21.7,1,1.21,1,1.94,0,.5-.38,1-.27,1.45s.94.84,1.61,1a.88.88,0,0,0,.48,0c.1,0,.19-.13.3-.19.37-.17.77.19,1.18.19s.81-.58.82-1.07a4.33,4.33,0,0,1,.06-1.44c.25-.6,1-.88,1.55-1.19a2.8,2.8,0,0,0,1.49-1.54,3.39,3.39,0,0,0,0-1.31c-.07-.66-.13-1.33-.17-2a2.93,2.93,0,0,1,3.23-3h0a2,2,0,0,0,1.53-.27c.15-.15.24-.34.42-.44.36-.19.84.08,1.2-.11a.74.74,0,0,0,.29-.8,2.64,2.64,0,0,1-.09-.88c.08-.42.48-.72.63-1.11a1.58,1.58,0,0,0-.28-1.38A5.94,5.94,0,0,0,29.44,6C28.78,5.9,28.12,5.89,27.47,5.88Z" style="fill:#865a61"/><path d="M26.28,25.51a10.92,10.92,0,0,1,2.16.72,7.72,7.72,0,0,1-1.36,0l-1-.36S26.14,25.72,26.28,25.51Z" style="opacity:0.10000000149011612;isolation:isolate"/><path d="M34.11,30.55A3.25,3.25,0,0,1,33,30.38l-.11-.08h0a3,3,0,0,1-3.1-2.91h0a2.94,2.94,0,0,1,.05-.51,7.38,7.38,0,0,1,2.14,1.44,5.79,5.79,0,0,0,.87,1c.3.3.62.59.89.83Z" style="opacity:0.10000000149011612;isolation:isolate"/><path d="M34.28,30.88a15.16,15.16,0,0,1-2.46-2.46c-.53-.9-8-4.7-7-1.82S29,29.76,29,29.76a5.79,5.79,0,0,1,1.16,1.67,7.91,7.91,0,0,0,.48,1.34l1.78.75.82-.18S35.21,32.35,34.28,30.88Z" style="fill:#fdc2cc"/><path d="M30.58,32.67S33.7,34.34,34,30.43l.79.25L34,33.32l-1.35.92S30.79,33.42,30.58,32.67Z" style="opacity:0.10000000149011612;isolation:isolate"/><path d="M30.68,32.77s3.13,1.67,3.44-2.24l.8.25-.8,2.64-1.35.92S30.89,33.52,30.68,32.77Z" style="fill:#d39999"/><path d="M33.44,13a9.77,9.77,0,0,1,.27-1,2.45,2.45,0,0,0,0-1,1.42,1.42,0,0,0-.28-.67c-.11-.12-.42-.4-.61-.27s-.13.48-.18.59a4.8,4.8,0,0,1-.59,1.12A4.38,4.38,0,0,1,31,18.08a5.08,5.08,0,0,1-2.84.86h-.34c-.11.17-.2.35-.3.52a1.6,1.6,0,0,0-.23.58,1.44,1.44,0,0,0,.09.58,7.68,7.68,0,0,0,.82,1.74,3.5,3.5,0,0,1,.29.54,5.12,5.12,0,0,0,.15.56,1.7,1.7,0,0,0,1.06.76,1.79,1.79,0,0,0,.79.18.17.17,0,0,0,.19-.16h0a.64.64,0,0,0-.21-.58,3.22,3.22,0,0,0,1.11.13.19.19,0,0,0,.22-.13.17.17,0,0,0,0-.12,4.41,4.41,0,0,0-.45-1.08c-.19-.33-.43-.72-.26-1.06a1.2,1.2,0,0,1,.51-.43,2.08,2.08,0,0,0,1.17-1.77c0-.4-.24-.78-.25-1.18,0-1,1.09-1.68,1.26-2.64C33.89,14.57,33.36,13.78,33.44,13Z" style="fill:#865a61"/><g style="opacity:0.10000000149011612"><path d="M19.58,22.23c0-.73-.81-1.23-1-1.94A1.86,1.86,0,0,1,18.5,20a2.3,2.3,0,0,0,.06.74c.2.64.88,1.12,1,1.76A1.5,1.5,0,0,0,19.58,22.23Z"/><path d="M22.89,24.61c-.41,0-.82-.35-1.19-.18-.11.05-.19.14-.3.19a.87.87,0,0,1-.48,0c-.66-.11-1.46-.33-1.6-.94a.86.86,0,0,0,0,.39c.14.62.94.84,1.6,1a.87.87,0,0,0,.48,0,2.49,2.49,0,0,0,.3-.19c.37-.17.78.19,1.19.19s.8-.58.82-1.07c0-.1,0-.2,0-.3C23.65,24.1,23.37,24.6,22.89,24.61Z"/><path d="M26.8,19.37a2.79,2.79,0,0,1-1.48,1.54c-.6.31-1.31.59-1.55,1.19a1.82,1.82,0,0,0-.09.8,1.37,1.37,0,0,1,.09-.4c.24-.6.95-.88,1.55-1.19a2.75,2.75,0,0,0,1.48-1.54,2.36,2.36,0,0,0,.07-.79A1.78,1.78,0,0,1,26.8,19.37Z"/><path d="M32.6,12.3a1.31,1.31,0,0,0-.74,0c-.19.1-.28.3-.43.44a1.92,1.92,0,0,1-1.52.27h0a2.93,2.93,0,0,0-3.22,3v0a3,3,0,0,1,3.2-2.65h0a2,2,0,0,0,1.53-.27c.15-.15.24-.34.43-.44a1.4,1.4,0,0,1,.74-.05,4.31,4.31,0,0,1,.34,1.5c0-.07,0-.13,0-.2A4.26,4.26,0,0,0,32.6,12.3Z"/><path d="M19.23,15.39A2.92,2.92,0,0,0,19,14.12a6.18,6.18,0,0,1-.53-1.22c-.12.56.31,1.08.53,1.62A2.61,2.61,0,0,1,19.23,15.39Z"/><path d="M33.71,11.18a2.63,2.63,0,0,1-.06.39,7.26,7.26,0,0,0-.26,1,1.15,1.15,0,0,0,0,.37,8.48,8.48,0,0,1,.26-1A2.61,2.61,0,0,0,33.71,11.18Z"/><path d="M33.7,15c-.17,1-1.29,1.66-1.26,2.64,0,.06,0,.11,0,.16.13-.86,1.09-1.52,1.24-2.4a1.61,1.61,0,0,0,0-.49A.28.28,0,0,1,33.7,15Z"/><path d="M33.89,9.44a2.47,2.47,0,0,1-.38.59,1.36,1.36,0,0,1,.11.25,2.07,2.07,0,0,0,.27-.45,1.15,1.15,0,0,0,0-.58A1.33,1.33,0,0,1,33.89,9.44Z"/><path d="M32.69,19.07a2.39,2.39,0,0,1-1.17,1.49A1.31,1.31,0,0,0,31,21a.64.64,0,0,0,0,.47.19.19,0,0,1,0-.07,1.34,1.34,0,0,1,.51-.43,2.1,2.1,0,0,0,1.18-1.77S32.69,19.11,32.69,19.07Z"/><path d="M30.57,24a.24.24,0,0,1-.14.05,1.82,1.82,0,0,1-.79-.18,1.78,1.78,0,0,1-1.06-.77,4.94,4.94,0,0,1-.15-.55,2.42,2.42,0,0,0-.29-.55,8.09,8.09,0,0,1-.81-1.74,2.29,2.29,0,0,1-.08-.28s0,.07,0,.1a1.45,1.45,0,0,0,.1.58,8.09,8.09,0,0,0,.81,1.74,2.35,2.35,0,0,1,.29.54,5.12,5.12,0,0,0,.15.56,1.75,1.75,0,0,0,1.06.76,1.82,1.82,0,0,0,.79.18.18.18,0,0,0,.2-.16h0a.75.75,0,0,0,0-.3Z"/><path d="M31.67,23.34a.35.35,0,0,1-.14,0,3.16,3.16,0,0,1-1.11-.12.66.66,0,0,1,.21.45,3.42,3.42,0,0,0,.9.07.18.18,0,0,0,.21-.13.17.17,0,0,0,0-.12C31.7,23.46,31.69,23.4,31.67,23.34Z"/></g><path d="M16.89,25.53s-.11,2,.21,2.19S16.89,25.53,16.89,25.53Z" style="opacity:0.10000000149011612;isolation:isolate"/><path d="M22.9,30.9c.1,0,.53.2.58.43S22.9,30.9,22.9,30.9Z" style="opacity:0.10000000149011612;isolation:isolate"/><path d="M22.63,31.23c.11,0,.53.2.58.42S22.63,31.23,22.63,31.23Z" style="opacity:0.10000000149011612;isolation:isolate"/><path d="M23.61,32.12c.11,0,.53.2.58.43S23.61,32.12,23.61,32.12Z" style="opacity:0.10000000149011612;isolation:isolate"/><path d="M22.29,32.16a12.62,12.62,0,0,0-1.53,1.64c-.09.29-2.81.3-2.81.3l-.18-1.39,0-.09c.75-.19,3.18-1,4.63-.73A.3.3,0,0,1,22.29,32.16Z" style="opacity:0.10000000149011612;isolation:isolate"/><path d="M15.74,33.87s1.38-1.15,1.81-1.13,5.58-2,5.93.28-6.59,2.44-6.59,2.44l-1.06.37S14.94,34,15.74,33.87Z" style="fill:#fdc2cc"/><path d="M15.33,34s.64-.83.83.18.49,2.25.49,2.25l-1.42-.66Z" style="fill:#d39999"/></svg>