<svg id="_2cf41747-0c0c-4d70-aad4-093c093adad4" data-name=" 2cf41747-0c0c-4d70-aad4-093c093adad4" xmlns="http://www.w3.org/2000/svg" viewBox="0 0 64.29 90.02"><path d="M60.23,15.56a10.2,10.2,0,0,0,.54-1.1L57,13.59l4.11,0A13.15,13.15,0,0,0,61.21,6L55.7,10,60.78,4.8C58.87.2,54.63-1.36,51.33,1.29s-4.44,8.55-2.52,13.14a9.07,9.07,0,0,0,.55,1.13,9.93,9.93,0,0,0-.79,1.75l4.92,3.56-5.25-2.45a12.72,12.72,0,0,0,1.11,9c-2.36,4.18-1.84,10.22,1.17,13.5a6.13,6.13,0,0,0,3,1.89A4.19,4.19,0,0,0,53.38,44a4.12,4.12,0,0,0,.3,1.61,4.44,4.44,0,0,0,0,3.21,4.44,4.44,0,0,0,0,3.21,4.44,4.44,0,0,0,0,3.21,4.07,4.07,0,0,0-.3,1.6c0,1.46.64,2.63,1.44,2.63s1.45-1.17,1.45-2.63a4.26,4.26,0,0,0-.3-1.6A4.44,4.44,0,0,0,56,52a4.44,4.44,0,0,0,0-3.21,4.44,4.44,0,0,0,0-3.21,4.31,4.31,0,0,0,.3-1.61,4.73,4.73,0,0,0-.14-1.13c3.75-1,6.19-6.08,5.45-11.29a11.81,11.81,0,0,0-1.35-4.09,12.68,12.68,0,0,0,0-11.88Z" style="fill:#f2f2f2"/><path d="M37.35,25.79a6.27,6.27,0,0,1-.35-.74l2.53-.58-2.74,0a8.74,8.74,0,0,1-.09-5.09l3.68,2.65L37,18.59c1.27-3.07,4.1-4.13,6.31-2.35s3,5.7,1.7,8.78a7.85,7.85,0,0,1-.38.77A6.23,6.23,0,0,1,45.15,27l-3.29,2.38,3.51-1.64a8.52,8.52,0,0,1-.74,6,8.22,8.22,0,0,1-.78,9,4.13,4.13,0,0,1-2,1.27,2.64,2.64,0,0,1,.1.74,2.69,2.69,0,0,1-.21,1.07,3,3,0,0,1,0,2.15,3,3,0,0,1,0,2.15,3,3,0,0,1,0,2.15,2.69,2.69,0,0,1,.21,1.07c0,1-.44,1.75-1,1.75s-1-.79-1-1.75a2.87,2.87,0,0,1,.2-1.07,3,3,0,0,1,0-2.15,3,3,0,0,1,0-2.15,3,3,0,0,1,0-2.15,2.87,2.87,0,0,1-.2-1.07A3.14,3.14,0,0,1,40.1,44C37.6,43.33,36,40,36.46,36.47a7.83,7.83,0,0,1,.9-2.74,8.46,8.46,0,0,1,0-7.94Z" style="fill:#f2f2f2"/><ellipse cx="32.14" cy="58.16" rx="32.15" ry="5.62" style="fill:#f2f2f2"/><path d="M42,45.52c0,.18,0,.36,0,.53v.08a13.63,13.63,0,0,1-.3,2.22s0,0,0,.07a13.63,13.63,0,0,1-.66,2l0,.07a11.61,11.61,0,0,1-1,1.91l0,.06a11.37,11.37,0,0,1-1.44,1.76l-.06,0A10.14,10.14,0,0,1,36.7,55.7l-.26.15-.07,0A9.9,9.9,0,0,1,33.45,57l-.12,0a9.69,9.69,0,0,1-1.7.16,10.4,10.4,0,0,1-9.45-6.84c-.11-.27-.21-.54-.3-.82l0-.12a12.42,12.42,0,0,1-.58-3.47v-.09c0-.1,0-.21,0-.32a12.77,12.77,0,0,1,.24-2.47s0,0,0-.07a12.08,12.08,0,0,1,.71-2.35.14.14,0,0,1,0-.06,11.45,11.45,0,0,1,1.07-2l0,0h0l.16-.23.08-.11.16-.21h0l.39-.49c.19-.22.38-.42.58-.63l0,0a10.79,10.79,0,0,1,1.69-1.37l.05,0a9.14,9.14,0,0,1,2.06-1l.07,0a9.59,9.59,0,0,1,2.68-.49h.34A10.37,10.37,0,0,1,41,40.6l.05.11.06.15a2.31,2.31,0,0,1,.1.28l0,.12a.24.24,0,0,1,0,.08h0a12.32,12.32,0,0,1,.55,2.19.28.28,0,0,0,0,.09A13.39,13.39,0,0,1,42,45.52Z" style="fill:#ffc763"/><g style="opacity:0.20000000298023224"><path d="M41.09,40.7q-.72-.37-1.41-.78a51.33,51.33,0,0,1-8.38-6.05h.09a51.21,51.21,0,0,0,9.66,6.73Z" style="fill:#f2f2f2"/></g><g style="opacity:0.20000000298023224"><path d="M41.88,43.61c-1.16-.53-2.3-1.13-3.43-1.78A51.72,51.72,0,0,1,30,35.72c-.51-.45-1-.89-1.45-1.33l.07,0q.66.63,1.41,1.29a50.2,50.2,0,0,0,11.84,7.87S41.87,43.58,41.88,43.61Z" style="fill:#f2f2f2"/></g><g style="opacity:0.20000000298023224"><path d="M42,46.05v.08a45.24,45.24,0,0,1-4.78-2.38,51.37,51.37,0,0,1-8.46-6.12c-.86-.75-1.64-1.49-2.34-2.19l.05,0c.7.7,1.48,1.43,2.32,2.17A49,49,0,0,0,42,46.05Z" style="fill:#f2f2f2"/></g><g style="opacity:0.20000000298023224"><path d="M41.71,48.35a.64.64,0,0,0,0,.07A44.42,44.42,0,0,1,36,45.66a51.63,51.63,0,0,1-8.46-6.12c-1.06-.93-2-1.84-2.84-2.69l0-.05c.84.85,1.78,1.76,2.83,2.69A49,49,0,0,0,41.71,48.35Z" style="fill:#f2f2f2"/></g><g style="opacity:0.20000000298023224"><path d="M41,50.47l0,.07a43.72,43.72,0,0,1-6.23-3,51.8,51.8,0,0,1-8.47-6.11c-1.13-1-2.14-2-3-2.88l0,0c.88.9,1.89,1.87,3,2.87A48.5,48.5,0,0,0,41,50.47Z" style="fill:#f2f2f2"/></g><g style="opacity:0.20000000298023224"><path d="M40,52.45l0,.06a42.65,42.65,0,0,1-6.39-3,51.63,51.63,0,0,1-8.46-6.12c-1.07-.95-2-1.88-2.88-2.74a.14.14,0,0,1,0-.06c.85.86,1.81,1.79,2.89,2.75A48.71,48.71,0,0,0,40,52.45Z" style="fill:#f2f2f2"/></g><g style="opacity:0.20000000298023224"><path d="M38.5,54.27l-.06,0a43.17,43.17,0,0,1-6.11-2.92,51.8,51.8,0,0,1-8.47-6.11c-.86-.77-1.66-1.52-2.38-2.24,0,0,0,0,0-.07.72.72,1.52,1.48,2.4,2.25A48.89,48.89,0,0,0,38.5,54.27Z" style="fill:#f2f2f2"/></g><g style="opacity:0.20000000298023224"><path d="M36.44,55.85l-.07,0a43.47,43.47,0,0,1-5.27-2.58,48.33,48.33,0,0,1-4.91-3.24q-1.82-1.35-3.55-2.88c-.48-.43-.94-.85-1.38-1.27v-.09c.45.43.92.86,1.42,1.3,1.05.94,2.27,1.94,3.64,3A47.29,47.29,0,0,0,36.44,55.85Z" style="fill:#f2f2f2"/></g><g style="opacity:0.20000000298023224"><path d="M33.45,57l-.12,0c-1.16-.54-2.32-1.14-3.46-1.79a51.62,51.62,0,0,1-7.14-5l-.85-.72,0-.12,1,.83A49.12,49.12,0,0,0,33.45,57Z" style="fill:#f2f2f2"/></g><path d="M36.7,55.7l-.26.15-.08,0A9.74,9.74,0,0,1,33.45,57l-.12,0a9.69,9.69,0,0,1-1.7.16,10.4,10.4,0,0,1-9.45-6.84l.55-.1h.08c.5-.08,1-.12,1.5-.15a14.59,14.59,0,0,1,1.87,0l.13,0a6.21,6.21,0,0,1,1.27.25,13.16,13.16,0,0,1,3.58,2.11A23.37,23.37,0,0,0,36.7,55.7Z" style="opacity:0.10000000149011612;isolation:isolate"/><path d="M41,40.59a10.37,10.37,0,0,0-9.41-6.72h-.34a9.24,9.24,0,0,0-2.68.49l-.06,0a9.7,9.7,0,0,0-2.07,1l-.05,0a10.25,10.25,0,0,0-1.69,1.37l0,0a11.24,11.24,0,0,0-1.36,1.67A8.66,8.66,0,0,1,23,40.7a1.75,1.75,0,0,0-.1,1.43c.16.32.5.73.8.75.81,0,1.26-1.46,1.64-2.21A9.67,9.67,0,0,1,27.58,38a5.34,5.34,0,0,1,1.14-.86,3.05,3.05,0,0,1,1.06-.26,4.72,4.72,0,0,1,2.89.7c1,.65,1.94,1.76,3.06,1.92a8.56,8.56,0,0,1,1.52.09c.89.29,1.5,1.45,2.36,1.85a2,2,0,0,0,1.72-.08q-.11-.32-.24-.63Z" style="opacity:0.10000000149011612;isolation:isolate"/><path d="M15.87,45.06c-.3.45-.64.84-1,1.27C13.75,47.94,13,50,12,51.77a9.85,9.85,0,0,0-.8,1.47A3,3,0,0,0,11,55a3.07,3.07,0,0,0,.71,1.2,3.25,3.25,0,0,0,.58.59,2.62,2.62,0,0,0,1.6.39.72.72,0,0,0,.8-.42,5.45,5.45,0,0,1-1.33-1.26,2.79,2.79,0,0,1-.54-1,3,3,0,0,1,.41-2c.33-.58.75-1,1.07-1.62a11.7,11.7,0,0,1,.91-1.73,7.57,7.57,0,0,1,.9-.81,7.72,7.72,0,0,0,1.15-1.47L19.16,44a.5.5,0,0,0,.09-.21.46.46,0,0,0-.11-.28c-.41-.59-1.18-1.62-1.75-.85S16.4,44.29,15.87,45.06Z" style="fill:#a0616a"/><path d="M15.87,45.06c-.3.45-.64.84-1,1.27C13.75,47.94,13,50,12,51.77a9.85,9.85,0,0,0-.8,1.47A3,3,0,0,0,11,55a3.07,3.07,0,0,0,.71,1.2,3.25,3.25,0,0,0,.58.59,2.62,2.62,0,0,0,1.6.39.72.72,0,0,0,.8-.42,5.45,5.45,0,0,1-1.33-1.26,2.79,2.79,0,0,1-.54-1,3,3,0,0,1,.41-2c.33-.58.75-1,1.07-1.62a11.7,11.7,0,0,1,.91-1.73,7.57,7.57,0,0,1,.9-.81,7.72,7.72,0,0,0,1.15-1.47L19.16,44a.5.5,0,0,0,.09-.21.46.46,0,0,0-.11-.28c-.41-.59-1.18-1.62-1.75-.85S16.4,44.29,15.87,45.06Z" style="opacity:0.10000000149011612;isolation:isolate"/><path d="M18.58,39.92c.38-.12.79.17,1.16,0a1.54,1.54,0,0,0,.52-.55l.62-.92a3.56,3.56,0,0,0,.46-.84,6.51,6.51,0,0,0,.17-.9,4.58,4.58,0,0,1,.73-2.13,1.6,1.6,0,0,1,2-.48A3.86,3.86,0,0,1,25.9,36c-.36.6-.77,1.16-1.13,1.77a2.61,2.61,0,0,1-.41.56,1.79,1.79,0,0,1-.54.33,2.85,2.85,0,0,0-1.61,1.68,6.15,6.15,0,0,0-.18,1,3.84,3.84,0,0,1-.61,1.67,1.07,1.07,0,0,1-1.25.5c-.48-.21-.78-.87-1-1.48A8.55,8.55,0,0,1,18.58,39.92Z" style="fill:#a0616a"/><path d="M18.58,39.92c.38-.12.79.17,1.16,0a1.54,1.54,0,0,0,.52-.55l.62-.92a3.56,3.56,0,0,0,.46-.84,6.51,6.51,0,0,0,.17-.9,4.58,4.58,0,0,1,.73-2.13,1.6,1.6,0,0,1,2-.48A3.86,3.86,0,0,1,25.9,36c-.36.6-.77,1.16-1.13,1.77a2.61,2.61,0,0,1-.41.56,1.79,1.79,0,0,1-.54.33,2.85,2.85,0,0,0-1.61,1.68,6.15,6.15,0,0,0-.18,1,3.84,3.84,0,0,1-.61,1.67,1.07,1.07,0,0,1-1.25.5c-.48-.21-.78-.87-1-1.48A8.55,8.55,0,0,1,18.58,39.92Z" style="opacity:0.10000000149011612;isolation:isolate"/><path d="M35.3,36.37a21.58,21.58,0,0,1,6.8,4.87c.92,1,1.73,2.21,2.6,3.31.45.57.92,1.12,1.39,1.68l3.33,3.92a14.12,14.12,0,0,0,1.28,1.38c1.08,1,2.36,1.45,3.42,2.49a6.22,6.22,0,0,0,.18,1.56c.1.39.37.63.66.6,1.66-.13,3.34,1,5,.71a.36.36,0,0,0,.23-.21A.67.67,0,0,0,60,56l-2.27-2.2c-.37-.37-.74-.73-1.13-1.08a51.94,51.94,0,0,1-4.12-3.77c-.28-.31-.54-.64-.8-1-1.39-1.72-2.79-3.44-4.11-5.27-1.91-2.65-3.73-5.61-5.63-8.29a7,7,0,0,0-.58-.74,4.69,4.69,0,0,0-.64-.54l-2.41-1.84a1.47,1.47,0,0,0-1.18-.46.5.5,0,0,0-.57.21,2.7,2.7,0,0,0-.36.72,5.21,5.21,0,0,0-.32,1c-.08.48-.05,1-.15,1.45-.07.31-.19.59-.27.89A4.22,4.22,0,0,0,35.3,36.37Z" style="fill:#a0616a"/><path d="M35.3,36.37a21.58,21.58,0,0,1,6.8,4.87c.92,1,1.73,2.21,2.6,3.31.45.57.92,1.12,1.39,1.68l3.33,3.92a14.12,14.12,0,0,0,1.28,1.38c1.08,1,2.36,1.45,3.42,2.49a6.22,6.22,0,0,0,.18,1.56c.1.39.37.63.66.6,1.66-.13,3.34,1,5,.71a.36.36,0,0,0,.23-.21A.67.67,0,0,0,60,56l-2.27-2.2c-.37-.37-.74-.73-1.13-1.08a51.94,51.94,0,0,1-4.12-3.77c-.28-.31-.54-.64-.8-1-1.39-1.72-2.79-3.44-4.11-5.27-1.91-2.65-3.73-5.61-5.63-8.29a7,7,0,0,0-.58-.74,4.69,4.69,0,0,0-.64-.54l-2.41-1.84a1.47,1.47,0,0,0-1.18-.46.5.5,0,0,0-.57.21,2.7,2.7,0,0,0-.36.72,5.21,5.21,0,0,0-.32,1c-.08.48-.05,1-.15,1.45-.07.31-.19.59-.27.89A4.22,4.22,0,0,0,35.3,36.37Z" style="opacity:0.10000000149011612;isolation:isolate"/><ellipse cx="18.93" cy="43.08" rx="2.72" ry="3.77" style="fill:#a0616a"/><path d="M35.46,29.45a1.12,1.12,0,0,1,1,.46,2.45,2.45,0,0,1,.12,1.48,20.8,20.8,0,0,1-.91,4.66.67.67,0,0,1-.18.32c-.15.11-.33,0-.48-.15a11.56,11.56,0,0,0-3.3-2.31.37.37,0,0,1-.19-.14.65.65,0,0,1,0-.31c.12-.74.27-1.47.37-2.22.05-.44-.05-1.51.23-1.79s1.17-.05,1.53,0Z" style="fill:#a0616a"/><path d="M36.74,36.82a21.55,21.55,0,0,1,6.8,4.86c.91,1,1.72,2.21,2.59,3.31.46.58.92,1.13,1.39,1.68l3.33,3.93A14.07,14.07,0,0,0,52.14,52c1.08,1,2.36,1.46,3.41,2.49A6.23,6.23,0,0,0,55.74,56c.1.39.37.63.66.6,1.66-.13,3.34,1,5,.71a.35.35,0,0,0,.24-.21.68.68,0,0,0-.25-.7l-2.27-2.2c-.38-.37-.75-.73-1.13-1.08a52.06,52.06,0,0,1-4.13-3.77c-.27-.31-.53-.64-.8-1C51.68,46.69,50.29,45,49,43.15c-1.92-2.66-3.73-5.62-5.63-8.3a7.15,7.15,0,0,0-.58-.73,6.32,6.32,0,0,0-.64-.54l-2.41-1.84c-.37-.28-.77-.57-1.18-.46a.53.53,0,0,0-.58.2,3.55,3.55,0,0,0-.36.73,5.2,5.2,0,0,0-.31,1c-.09.47-.06,1-.16,1.45-.06.3-.18.58-.26.89A3.9,3.9,0,0,0,36.74,36.82Z" style="fill:#a0616a"/><path d="M37.54,37.1l.07-1.55a9,9,0,0,1,.14-1.28A6,6,0,0,1,38.26,33a3.12,3.12,0,0,1,.39-.64c.21-.25.5-.39.7-.67a.37.37,0,0,0,.08-.3l-.06-.1A7.28,7.28,0,0,0,37.66,30l-1.12-.69a11.29,11.29,0,0,0-1.2,2.87,4.92,4.92,0,0,1-.14.55c-.14.42-.42.72-.59,1.12a4.92,4.92,0,0,0-.3,1.23,2,2,0,0,0,0,.76,1.28,1.28,0,0,0,.43.6,4.69,4.69,0,0,0,2.42,1.47c.16,0,.38.13.43-.08S37.53,37.28,37.54,37.1Z" style="fill:#3f3d56"/><path d="M15.29,41.43a2,2,0,0,0,.2,1.8,7.11,7.11,0,0,1,.85,1.56c.39,1.46-.7,2.94-.67,4.5a5.6,5.6,0,0,0,1.67,3.32,11.35,11.35,0,0,1,2.78,7.65,3.55,3.55,0,0,0,1.78-1.82,6.52,6.52,0,0,1,.29,2.38,9.36,9.36,0,0,0,2.38-7.33,29.44,29.44,0,0,1-.43-4,16.64,16.64,0,0,1,.3-2.12,18.29,18.29,0,0,0,.21-2.78,4.4,4.4,0,0,0-.75-2.89A2.28,2.28,0,0,0,22,41.18c-.68,0-1.37,0-2.06.07s-1.42.38-2.11.4S16,40.1,15.29,41.43Z" style="fill:#3f3d56"/><path d="M25.56,34.45a2.85,2.85,0,0,0-1.19,1.06c-.21.31-.38.66-.59,1a5.74,5.74,0,0,1-.86.91c-.56.54-1.09,1.16-1.62,1.77l-2.61,3c-.4.47-.81.94-1.19,1.45s-.92,1.3-1.42,1.88c-.3.34-.62.64-.89,1a9.07,9.07,0,0,0-.68,1.18,54.2,54.2,0,0,1-2.76,4.76,10.15,10.15,0,0,1-1.35,1.78A33.42,33.42,0,0,0,7.63,58.1a.49.49,0,0,0-.12.4.27.27,0,0,0,.13.13c.68.35,1.26-1.17,2-1,.32.1.52.52.75.85s.62.56.86.25a7.34,7.34,0,0,1,.25-2.65,8.33,8.33,0,0,1,2-3.32c.84-.89,1.74-1.66,2.53-2.64,1.31-1.64,2.27-3.88,3.83-5,.6-.46,1.28-.72,1.89-1.19a9.67,9.67,0,0,0,2.64-4.13,2.31,2.31,0,0,1,.3-.61,1.73,1.73,0,0,1,.44-.35,7.6,7.6,0,0,0,2.19-2.22L26.71,36a3,3,0,0,1-.42-.51,5.42,5.42,0,0,1-.32-.69A.72.72,0,0,0,25.56,34.45Z" style="fill:#a0616a"/><path d="M32.57,34.73a1.27,1.27,0,0,1-.17-.84c0-.94.06-1.88.08-2.82a3.13,3.13,0,0,1,.43-1.83,26.61,26.61,0,0,0-3.14-.67,3.81,3.81,0,0,0-1.26,0,4.76,4.76,0,0,0-1.44.69,8.47,8.47,0,0,0-1.49,1.09,6.82,6.82,0,0,1-.55.53,5.57,5.57,0,0,1-1.13.54c-1.8.85-2.83,3.47-2.38,6,.13-.46.22-.94.37-1.39a2.25,2.25,0,0,1,.68-1.1,1.12,1.12,0,0,1,1.09-.1,3.94,3.94,0,0,1,1,.66,5.27,5.27,0,0,1,1.78,2.37c.71-.73,1.43-1.43,2.14-2.16a4.16,4.16,0,0,1,1-.83A3.18,3.18,0,0,1,31,34.6,4.22,4.22,0,0,1,32.57,34.73Z" style="fill:#ff6584"/><polygon points="21.52 37.35 21.43 38.99 21.74 38.64 21.59 37.18 21.52 37.35" style="fill:#ff6584"/><path d="M10,16.21l-1,.88.61-1.52a.83.83,0,0,0-.6-.3h0l-.21,0-.34.3.15-.37A1.32,1.32,0,0,1,8,14.56l-.61.53.39-1a1.68,1.68,0,0,0-1.36-1c-.63,0-1.18.52-1.55,1.32a1.11,1.11,0,0,1-1,.77h0c-.69,0-1.25,1.09-1.25,2.44s.56,2.44,1.25,2.44A.71.71,0,0,0,4.2,20a1.36,1.36,0,0,1,1.52,0A1.16,1.16,0,0,0,7,20a1.38,1.38,0,0,1,1.51,0,.7.7,0,0,0,.43.15c.7,0,1.26-1.09,1.26-2.44A4.38,4.38,0,0,0,10,16.21Z" style="fill:#f2f2f2"/><path d="M8.07,19.79A1.35,1.35,0,0,0,7,20a1.2,1.2,0,0,1-1.3,0,1.36,1.36,0,0,0-1.52,0,.77.77,0,0,1-.43.15c-.62,0-1.13-.86-1.24-2a1.69,1.69,0,0,0,.31-.46c.36-.81.92-1.33,1.55-1.33s1.18.51,1.54,1.31a1.16,1.16,0,0,0,1,.78H7C7.44,18.44,7.87,19,8.07,19.79Z" style="opacity:0.029999999329447746;isolation:isolate"/><path d="M27.73,21.38l-.5.43.3-.76a.42.42,0,0,0-.3-.15h-.11L27,21l.08-.18a.69.69,0,0,1-.3-.31l-.3.27.19-.48a.82.82,0,0,0-.68-.48c-.31,0-.59.26-.77.66a.54.54,0,0,1-.51.38h0c-.34,0-.63.55-.63,1.22s.29,1.22.63,1.22a.37.37,0,0,0,.22-.08.68.68,0,0,1,.76,0,.55.55,0,0,0,.32.1.62.62,0,0,0,.32-.09.66.66,0,0,1,.75,0,.44.44,0,0,0,.22.07c.34,0,.62-.55.62-1.22A2,2,0,0,0,27.73,21.38Z" style="fill:#f2f2f2"/><path d="M26.79,23.16a.69.69,0,0,0-.54.08.75.75,0,0,1-.32.1.63.63,0,0,1-.32-.1.68.68,0,0,0-.76,0,.37.37,0,0,1-.22.08c-.31,0-.56-.43-.61-1a.76.76,0,0,0,.15-.23c.18-.41.46-.66.77-.66a.93.93,0,0,1,.77.65.58.58,0,0,0,.51.39h0C26.47,22.49,26.69,22.76,26.79,23.16Z" style="opacity:0.029999999329447746;isolation:isolate"/><path d="M30.11,7.66l.8.7-.48-1.22a.64.64,0,0,1,.48-.24h0a.5.5,0,0,0,.17,0l.27.24-.12-.29a1,1,0,0,0,.47-.5l.49.43L31.89,6A1.34,1.34,0,0,1,33,5.22c.5,0,1,.42,1.24,1.07A.89.89,0,0,0,35,6.9h0c.55,0,1,.88,1,2s-.45,2-1,2a.6.6,0,0,1-.36-.12,1.07,1.07,0,0,0-1.21,0,1,1,0,0,1-.53.15,1,1,0,0,1-.51-.15,1.11,1.11,0,0,0-1.21,0,.54.54,0,0,1-.34.12c-.56,0-1-.87-1-2A3.4,3.4,0,0,1,30.11,7.66Z" style="fill:#f2f2f2"/><path d="M31.61,10.52a1.16,1.16,0,0,1,.87.13.92.92,0,0,0,1,0,1.11,1.11,0,0,1,1.22,0,.59.59,0,0,0,.35.12c.5,0,.91-.69,1-1.61a1.08,1.08,0,0,1-.24-.37c-.29-.64-.74-1.06-1.25-1.06s-.94.41-1.23,1.05a1,1,0,0,1-.82.63h0C32.12,9.45,31.78,9.88,31.61,10.52Z" style="opacity:0.029999999329447746;isolation:isolate"/><path d="M16.88,27.65c0-.07-.2,0-.37.15l-.08.08a1.17,1.17,0,0,0-.38-.17h0a3.5,3.5,0,0,0,.47-.54h-.36l.52-.28a.38.38,0,0,0,0-.33c-.09-.2-.55,0-1,.42a3.19,3.19,0,0,0-.56.69c-.39.07-.66.22-.66.41s.13.24.34.32h0c-.47.43-.77.95-.68,1.14s.45.05.86-.28l-.27-.18.43,0h0l.13-.12L15,28.79l.47,0a2.85,2.85,0,0,0,.25-.33c.44,0,.78-.18.84-.37l.11-.07a1.46,1.46,0,0,0,.16-.19h-.13l.19-.1C16.88,27.71,16.89,27.67,16.88,27.65Z" style="fill:#f2f2f2"/></svg>